<svg xmlns="http://www.w3.org/2000/svg" xmlns:xlink="http://www.w3.org/1999/xlink" version="1.1" id="Capa_1" x="0px" y="0px" width="100px" height="100px" viewBox="0 0 100 100" enable-background="new 0 0 100 100" xml:space="preserve">
<polygon points="88.029,81.508 88.029,20.833 71.843,20.833 71.843,81.508 68.082,81.508 68.082,46.833 51.895,46.833   51.895,81.508 48.134,81.508 48.134,37.167 31.948,37.167 31.948,81.508 28.186,81.508 28.186,52.833 12,52.833 12,81.508   8.106,81.508 8.106,15.658 5.345,15.658 5.345,79.403 5.345,79.656 5.345,80.124 5.345,84.269 8.397,84.269 8.451,84.269   8.55,84.269 92.864,84.269 92.864,81.508 "/>
</svg>