<svg xmlns="http://www.w3.org/2000/svg" xmlns:xlink="http://www.w3.org/1999/xlink" version="1.1" id="Layer_1" x="0px" y="0px" width="100px" height="100px" viewBox="0 0 100 100" enable-background="new 0 0 100 100" xml:space="preserve">
<g>
	<polygon points="74.532,37.148 77.677,36.631 79.962,37.246 80.909,35.693 75.47,32.871 73.81,35.801  "/>
	<path d="M72.071,10.781c0,0-0.01,0-0.01-0.01c-0.986-0.557-2.002-1.074-3.027-1.553c-0.029-0.02-0.059-0.029-0.088-0.039   c-1.016-0.479-2.051-0.908-3.105-1.309c-0.039-0.01-0.068-0.02-0.107-0.039c-0.518-0.195-1.035-0.371-1.563-0.547   c-0.039-0.02-0.088-0.029-0.137-0.049c-0.518-0.166-1.035-0.332-1.563-0.479c-0.01-0.01-0.029-0.01-0.029-0.01   c-0.527-0.156-1.055-0.293-1.592-0.42c-0.078-0.029-0.156-0.049-0.244-0.068c-0.527-0.127-1.064-0.244-1.602-0.352l-0.01-0.01   c-0.527-0.098-1.055-0.195-1.582-0.283c-0.098-0.02-0.186-0.029-0.283-0.049c-0.527-0.088-1.055-0.156-1.582-0.225   c-0.088-0.01-0.166-0.02-0.254-0.029c-0.488-0.059-0.977-0.107-1.465-0.146c-0.078-0.01-0.156-0.02-0.234-0.02   c-0.537-0.039-1.064-0.078-1.602-0.098c-0.117-0.01-0.234-0.01-0.352-0.01C51.095,5.02,50.548,5,50.001,5   c-0.391,0-0.781,0.01-1.162,0.02c-0.117,0-0.225,0.01-0.342,0.01c-0.273,0.01-0.537,0.02-0.811,0.029   c-0.156,0.01-0.322,0.02-0.488,0.029c-0.215,0.02-0.439,0.029-0.654,0.049c-0.186,0.01-0.371,0.029-0.547,0.049   c-0.195,0.01-0.391,0.029-0.586,0.049c-0.205,0.02-0.41,0.049-0.615,0.068c-0.166,0.02-0.342,0.039-0.508,0.059   c-0.225,0.029-0.449,0.059-0.664,0.088c-0.156,0.029-0.303,0.049-0.449,0.068c-0.234,0.029-0.469,0.078-0.703,0.117   c-0.137,0.02-0.273,0.039-0.41,0.068c-0.234,0.039-0.479,0.088-0.713,0.137c-0.127,0.02-0.254,0.039-0.381,0.068   c-0.244,0.049-0.498,0.107-0.742,0.156c-0.117,0.029-0.234,0.049-0.342,0.078c-0.254,0.059-0.508,0.117-0.752,0.186   c-0.107,0.029-0.225,0.049-0.332,0.078c-0.254,0.068-0.518,0.137-0.781,0.205c-0.088,0.029-0.186,0.059-0.283,0.078   c-0.264,0.078-0.537,0.156-0.801,0.244c-0.088,0.02-0.166,0.049-0.254,0.068c-0.273,0.088-0.547,0.176-0.82,0.264   c-0.078,0.029-0.146,0.049-0.225,0.078c-0.273,0.088-0.557,0.195-0.83,0.293c-0.068,0.02-0.137,0.039-0.205,0.068   c-0.283,0.107-0.566,0.215-0.85,0.322c-0.059,0.02-0.107,0.039-0.166,0.059c-0.293,0.117-0.576,0.234-0.869,0.352   c-0.049,0.02-0.098,0.039-0.137,0.059c-0.293,0.127-0.588,0.254-0.876,0.381c-0.039,0.02-0.083,0.039-0.122,0.059   c-0.298,0.127-0.591,0.264-0.879,0.4c-0.034,0.02-0.073,0.039-0.103,0.049c-0.303,0.146-0.596,0.293-0.889,0.439   c-0.029,0.02-0.059,0.029-0.088,0.049c-0.293,0.146-0.591,0.303-0.889,0.459c-0.02,0.01-0.039,0.029-0.068,0.039   c-0.293,0.156-0.596,0.322-0.889,0.488c-0.02,0.01-0.034,0.02-0.049,0.029c-0.303,0.176-0.601,0.352-0.898,0.527   c-0.01,0.01-0.02,0.02-0.02,0.02c-0.313,0.186-0.605,0.371-0.898,0.557l-0.029,0.01c-0.298,0.195-0.591,0.381-0.879,0.576   c-0.01,0.01-0.02,0.01-0.024,0.02c-0.293,0.195-0.586,0.391-0.874,0.596l-0.01,0.01c-0.293,0.205-0.576,0.41-0.864,0.625h-0.005   c-0.288,0.215-0.571,0.43-0.85,0.654h-0.01c-0.278,0.215-0.557,0.439-0.835,0.664l-0.005,0.01c-0.273,0.225-0.547,0.449-0.82,0.684   l0,0c-0.269,0.234-0.537,0.469-0.801,0.703v0.01c-0.264,0.234-0.527,0.479-0.781,0.713c-0.01,0.01-0.01,0.01-0.01,0.01   c-0.259,0.244-0.508,0.488-0.762,0.732c0,0.01-0.01,0.01-0.01,0.01l0,0c-3.687,3.652-6.748,7.93-8.999,12.676   c-0.034,0.068-0.073,0.146-0.107,0.225c-0.142,0.293-0.269,0.586-0.405,0.889c-0.039,0.098-0.083,0.186-0.127,0.283   c-0.122,0.293-0.244,0.576-0.361,0.859c-0.039,0.098-0.078,0.195-0.117,0.293C8.1,33.555,7.982,33.867,7.86,34.18   c-0.024,0.068-0.054,0.137-0.078,0.205c-0.288,0.781-0.552,1.572-0.801,2.373c-0.024,0.078-0.049,0.166-0.073,0.244   c-0.093,0.313-0.186,0.615-0.273,0.928c-0.029,0.127-0.059,0.244-0.098,0.361c-0.068,0.283-0.146,0.566-0.215,0.85   c-0.029,0.127-0.063,0.254-0.098,0.391c-0.068,0.273-0.127,0.566-0.19,0.85c-0.024,0.117-0.054,0.244-0.083,0.371   c-0.068,0.332-0.132,0.664-0.195,0.996c-0.01,0.078-0.029,0.146-0.039,0.225c-0.078,0.41-0.146,0.82-0.205,1.24   c-0.015,0.078-0.029,0.166-0.039,0.244c-0.049,0.332-0.088,0.664-0.132,0.996c-0.015,0.137-0.034,0.273-0.049,0.42   c-0.034,0.273-0.063,0.547-0.088,0.83c-0.015,0.156-0.024,0.313-0.044,0.469c-0.02,0.264-0.039,0.537-0.059,0.811   c-0.01,0.156-0.02,0.313-0.029,0.469c-0.02,0.283-0.029,0.576-0.039,0.869c-0.005,0.137-0.01,0.264-0.015,0.4   c-0.015,0.43-0.02,0.85-0.02,1.279c0,24.854,20.146,45,45.002,45c24.854,0,45-20.146,45-45   C95.001,33.174,85.753,18.496,72.071,10.781z M85.978,32.549l-2.881,1.582l1.143,2.91l-0.508,1.992l2.91,0.215l-0.508-3.242   l-1.055-1.563l1.26-0.527v-0.605c1.689,3.682,2.842,7.646,3.35,11.816l-3.105-0.576l-1.807-1.543l-0.898,0.508l1.289,3.096   l2.061-1.025l2.695,2.041v0.029l-7.979,4.756l-4.131-8.125l-0.859,0.146l4.219,9.658l4.131-1.934l-1.289,4.512l-4.131,3.74   l0.635,5.537l-2.314,1.807l-4.248,7.998l-4.258,0.771l-3.74-9.023l0.898-4.121l-2.314-7.227l-7.871,0.518l-4.385-4.258l0.771-6.953   l4.258-5.166l8.252-1.406l0.518,2.178l3.35,2.197l1.289-1.807l5.127,1.309l1.328-0.791l0.576-1.934l-3.535-0.586l-1.143-1.992   l-0.84-0.42l-0.732,2.51l-1.563-1.982l0.098-1.66l-2.09-1.68l-1.25-0.625l0.107,1.67l2.617,1.768l-1.367,1.582l-1.875-2.52   l-1.348-1.563l-3.145,1.563l-2.188,3.457l-3.34-0.527l-0.205-4.18l4.268,0.313l-1.348-2.188l-0.84-1.777l3.242-1.045l1.768-2.393   l1.465-0.107L64.2,26.299l0.938-1.25l0.732,2.08l4.072,0.107l1.143-2.93l1.572,0.537l-0.527-1.982l2.432-0.791l-0.752-0.889   l-2.197,0.625l-0.771-1.875l-0.117-0.01l0.068-0.137l-0.322-0.791l0.879-0.625l0.684-1.729   C77.989,20.586,82.833,26.084,85.978,32.549z M81.524,70.557l0.107-4.18l2.822-2.188l0.42,2.08l-1.67,5.01L81.524,70.557z    M47.462,12.813l1.357,2.773l-1.943,3.652l-0.107,1.885l-1.885,1.162l-0.225,4.98l-2.783-0.684l-5.449-14.209   c3.018-1.084,6.201-1.826,9.502-2.168L47.462,12.813z M71.515,16.309l-0.225-0.029l-1.348,1.67l-1.152,2.5l1.26,1.357l-1.26,3.34   l-1.865,0.732l-1.055-3.34l-2.188,1.25l-1.045-0.615l0.098-3.242l1.885-1.465l1.563-3.857l1.162-0.645   C68.79,14.658,70.177,15.449,71.515,16.309z M57.218,24.648h-1.885l0.107-1.982l1.563-1.885l-0.098-1.455l1.66-1.152l2.822,5.42   l-0.732,1.152l-2.607,1.143v-3.75L57.218,24.648z M27.348,17.061l2.861-0.303v6.221l-4.922,0.977l-0.981,2.627l4.751,5.078   l1.152-0.166l0.806-6.387l3.117-0.166l1.299,3.604l1.641-0.986l3.604,8.027l-5.078,2.295l-3.923,2.129l-3.11,4.258v2.129   l-1.152,0.156l-0.811-2.285l-4.424,0.654l-0.981,2.773l1.143,1.65l1.641-1.318l1.636,0.166l-0.815,2.324l1.963,0.137l0.649,2.451   l1.323,0.439l0.977-1.592l6.55,0.664l4.414,3.271l0.664,2.627l5.732,2.773l-3.281,6.719l-3.271,0.488l-0.498,2.627l-6.709,5.723   l-3.103,5.898l2.282,2.451l-2.717-0.703c-0.42-0.244-0.835-0.508-1.245-0.762l-1.118-2.783l3.774-15.244L28.07,62.93l-1.47-5.889   l1.763-2.871l-1.602,0.244l-2.29-2.949l-1.963-0.986l-4.59-1.631l-3.765-5.889l-2.29-4.258V37.93   C14.579,29.375,20.102,22.061,27.348,17.061z"/>
</g>
</svg>