<svg xmlns="http://www.w3.org/2000/svg" xmlns:xlink="http://www.w3.org/1999/xlink" version="1.0" x="0px" y="0px" width="100px" height="100px" viewBox="0 0 100 100" enable-background="new 0 0 100 100" xml:space="preserve">
<g id="Captions">
</g>
<g id="Your_Icon">
	<path fill="#000000" d="M95.128,58.374h-5.587v-8.319H52.085v-8.225h5.617c2.698,0,4.893-2.193,4.893-4.887V21.539   c0-2.7-2.195-4.889-4.893-4.889H42.3c-2.698,0-4.887,2.189-4.887,4.889v15.403c0,2.694,2.189,4.887,4.887,4.887h5.619v8.225H10.461   v8.319H4.881C2.187,58.374,0,60.555,0,63.239v15.249c0,2.681,2.187,4.863,4.881,4.863h15.322c2.688,0,4.881-2.181,4.881-4.863   V63.239c0-2.684-2.193-4.865-4.881-4.865h-5.579v-4.163h33.295v4.163h-5.526c-2.694,0-4.879,2.181-4.879,4.865v15.249   c0,2.681,2.185,4.863,4.879,4.863h15.324c2.686,0,4.879-2.181,4.879-4.863V63.239c0-2.684-2.193-4.865-4.879-4.865h-5.631v-4.163   h33.297v4.163h-5.585c-2.686,0-4.877,2.181-4.877,4.865v15.249c0,2.681,2.191,4.863,4.877,4.863h15.33   c2.688,0,4.872-2.181,4.872-4.863V63.239C100,60.555,97.815,58.374,95.128,58.374z M41.571,36.943V21.539   c0-0.397,0.336-0.73,0.729-0.73h15.403c0.393,0,0.73,0.334,0.73,0.73v15.403c0,0.391-0.338,0.724-0.73,0.724H42.3   C41.907,37.667,41.571,37.333,41.571,36.943z M20.917,63.239v15.249c0,0.378-0.326,0.7-0.714,0.7H4.881   c-0.389,0-0.718-0.321-0.718-0.7V63.239c0-0.381,0.33-0.702,0.718-0.702h15.322C20.591,62.536,20.917,62.858,20.917,63.239z    M58.433,63.239v15.249c0,0.378-0.327,0.7-0.716,0.7H42.393c-0.389,0-0.712-0.321-0.712-0.7V63.239   c0-0.381,0.324-0.702,0.712-0.702h15.324C58.106,62.536,58.433,62.858,58.433,63.239z M95.84,78.487c0,0.378-0.33,0.7-0.712,0.7   h-15.33c-0.385,0-0.71-0.321-0.71-0.7V63.239c0-0.381,0.325-0.702,0.71-0.702h15.33c0.382,0,0.712,0.321,0.712,0.702V78.487z"/>
</g>
</svg>