<svg xmlns="http://www.w3.org/2000/svg" xmlns:xlink="http://www.w3.org/1999/xlink" version="1.0" x="0px" y="0px" width="100px" height="91.613px" viewBox="0 0 100 91.613" overflow="visible" enable-background="new 0 0 100 91.613" xml:space="preserve">
    <path d="M97.256,49.829H62.6c-1.521,0-2.751,1.229-2.751,2.747c0,0.775,0.323,1.468,0.838,1.969l24.408,24.411l0.015-0.003 c0.499,0.536,1.207,0.876,1.999,0.876c0.949,0,1.786-0.483,2.281-1.217c5.998-6.958,9.857-15.812,10.562-25.54 c0.031-0.163,0.054-0.328,0.054-0.496C100,51.058,98.774,49.829,97.256,49.829z"/>
    <path d="M52.915,44.026h38.518l0.003-0.002c0,0,0.003,0.002,0.009,0.002c1.518,0,2.745-1.233,2.745-2.749l0,0 C92.829,19.103,75.085,1.365,52.915,0l-0.01,0.008c-1.51,0.006-2.737,1.233-2.737,2.747v38.521 C50.168,42.793,51.396,44.026,52.915,44.026z"/>
    <path d="M73.305,76.706l-0.01-0.004c-0.004-0.007-0.007-0.013-0.01-0.016l-28.4-28.401v-0.01 c-0.48-0.493-0.772-1.164-0.772-1.907h-0.008V6.227V6.224c-0.005-1.512-1.228-2.733-2.741-2.735l-0.003-0.006 C18.281,4.9,0,24.069,0,47.506c0,24.357,19.747,44.106,44.104,44.106c11.111,0,21.257-4.106,29.013-10.882v-0.012 c0.598-0.503,0.977-1.247,0.977-2.085c0-0.749-0.3-1.429-0.789-1.926V76.706z"/>
</svg>