<?xml version="1.0" encoding="UTF-8" standalone="no"?>
<svg width="27px" height="27px" viewBox="0 0 27 27" version="1.1" xmlns="http://www.w3.org/2000/svg" xmlns:xlink="http://www.w3.org/1999/xlink">
    <!-- Generator: Sketch 39 (31667) - http://www.bohemiancoding.com/sketch -->
    <title>box.chart</title>
    <desc>Created with Sketch.</desc>
    <defs></defs>
    <g id="Page-1" stroke="none" stroke-width="1" fill="none" fill-rule="evenodd">
        <g id="treemap.chart" transform="translate(3.000000, 3.000000)" stroke="#5D5D5D">
            <g id="Page-1">
                <g id="treemap">
                    <g id="Group-Copy-7">
                        <rect id="Rectangle-path" x="2.36132027e-16" y="7.16992188" width="4" height="9"></rect>
                        <rect id="Rectangle-path" x="6" y="8.16992188" width="4" height="4.83007812"></rect>
                        <path d="M8,5.5 L8,16.5" id="Line" stroke-linecap="square"></path>
                        <path d="M6.5,10.5 L9.5,10.5" id="Line" stroke-linecap="square"></path>
                        <path d="M6.5,4.5 L9.5,4.5" id="Line" stroke-linecap="square"></path>
                        <path d="M6.5,17.5 L9.5,17.5" id="Line" stroke-linecap="square"></path>
                        <path d="M12.5,21.5 L15.5,21.5" id="Line" stroke-linecap="square"></path>
                        <path d="M14,1.5 L14,21.5" id="Line" stroke-linecap="square"></path>
                        <path d="M12.5,11.5 L15.5,11.5" id="Line" stroke-linecap="square"></path>
                        <path d="M12.5,1.5 L15.5,1.5" id="Line" stroke-linecap="square"></path>
                        <rect id="Rectangle-path" x="12" y="4" width="4" height="12.1699219"></rect>
                        <rect id="Rectangle-path" x="18" y="6.3601074" width="4" height="7"></rect>
                    </g>
                </g>
            </g>
        </g>
        <path d="M23,7.5 L23,18.5" id="Line" stroke="#5D5D5D" stroke-linecap="square"></path>
        <path d="M21.5,12.5 L24.5,12.5" id="Line" stroke="#5D5D5D" stroke-linecap="square"></path>
        <path d="M21.5,7.5 L24.5,7.5" id="Line" stroke="#5D5D5D" stroke-linecap="square"></path>
        <path d="M21.5,18.5 L24.5,18.5" id="Line" stroke="#5D5D5D" stroke-linecap="square"></path>
        <path d="M5,7.5 L5,20.5096121" id="Line" stroke="#5D5D5D" stroke-linecap="square"></path>
        <path d="M3.5,14.5 L6.5,14.5" id="Line" stroke="#5D5D5D" stroke-linecap="square"></path>
        <path d="M3.5,6.5 L6.5,6.5" id="Line" stroke="#5D5D5D" stroke-linecap="square"></path>
        <path d="M3.5,20.5 L6.5,20.5" id="Line" stroke="#5D5D5D" stroke-linecap="square"></path>
    </g>
</svg>