<?xml version="1.0" encoding="UTF-8" standalone="no"?>
<!-- Created with Inkscape (http://www.inkscape.org/) -->

<svg
   xmlns:dc="http://purl.org/dc/elements/1.1/"
   xmlns:cc="http://creativecommons.org/ns#"
   xmlns:rdf="http://www.w3.org/1999/02/22-rdf-syntax-ns#"
   xmlns:svg="http://www.w3.org/2000/svg"
   xmlns="http://www.w3.org/2000/svg"
   xmlns:sodipodi="http://sodipodi.sourceforge.net/DTD/sodipodi-0.dtd"
   xmlns:inkscape="http://www.inkscape.org/namespaces/inkscape"
   width="331.67081mm"
   height="73.707428mm"
   viewBox="0 0 1175.2115 261.16805"
   id="svg2"
   version="1.1"
   inkscape:version="0.91 r13725"
   sodipodi:docname="CL_ML_logo.svg">
  <metadata
     id="metadata32">
    <rdf:RDF>
      <cc:Work
         rdf:about="">
        <dc:format>image/svg+xml</dc:format>
        <dc:type
           rdf:resource="http://purl.org/dc/dcmitype/StillImage" />
      </cc:Work>
    </rdf:RDF>
  </metadata>
  <defs
     id="defs4" />
  <sodipodi:namedview
     id="base"
     pagecolor="#ffffff"
     bordercolor="#666666"
     borderopacity="1.0"
     inkscape:pageopacity="0.0"
     inkscape:pageshadow="2"
     inkscape:zoom="0.42426407"
     inkscape:cx="-600.07639"
     inkscape:cy="297.14158"
     inkscape:document-units="px"
     inkscape:current-layer="g4222"
     showgrid="false"
     fit-margin-top="0"
     fit-margin-left="0"
     fit-margin-right="0"
     fit-margin-bottom="0"
     inkscape:window-width="1920"
     inkscape:window-height="1056"
     inkscape:window-x="0"
     inkscape:window-y="24"
     inkscape:window-maximized="1" />
  <g
     inkscape:label="Layer 1"
     inkscape:groupmode="layer"
     id="layer1"
     transform="translate(-2.457346,-2.62143)">
    <g
       transform="matrix(1.25,0,0,-1.25,-68.516779,322.92812)"
       inkscape:label="ink_ext_XXXXXX"
       id="g4220">
      <g
         transform="scale(0.1,0.1)"
         id="g4222">
        <path
           inkscape:connector-curvature="0"
           id="path4224"
           style="fill:#100f0d;fill-opacity:1;fill-rule:nonzero;stroke:none"
           d="m 2981.81,1020.54 c -21.81,0 -41.5,3.6 -59.08,10.81 -17.59,7.2 -32.62,17.22 -45.1,30.07 -12.48,12.83 -22.15,27.95 -29.01,45.36 -6.86,17.41 -10.29,36.31 -10.29,56.71 0,20.39 3.34,39.29 10.02,56.71 6.68,17.4 16.18,32.51 28.49,45.36 12.31,12.83 27.16,22.86 44.58,30.06 17.4,7.21 36.83,10.82 58.28,10.82 18.28,0 34.9,-2.55 49.85,-7.65 14.94,-5.1 27.87,-12.22 38.77,-21.36 10.9,-9.15 19.69,-20.05 26.38,-32.7 6.67,-12.67 11.08,-26.57 13.19,-41.68 l -82.82,0 c -2.82,12.3 -7.83,22.07 -15.04,29.27 -7.21,7.21 -16.97,10.81 -29.27,10.81 -18.65,0 -32.53,-7.11 -41.67,-21.35 -9.15,-14.25 -13.72,-33.68 -13.72,-58.29 0,-24.27 4.57,-43.44 13.72,-57.5 9.14,-14.07 23.02,-21.1 41.67,-21.1 27.43,0 43.07,15.47 46.95,46.42 l 82.29,0 c -0.71,-15.48 -4.14,-29.98 -10.29,-43.52 -6.16,-13.54 -14.77,-25.32 -25.85,-35.34 -11.08,-10.03 -24.45,-17.85 -40.09,-23.48 -15.65,-5.62 -32.97,-8.43 -51.96,-8.43" />
        <path
           inkscape:connector-curvature="0"
           id="path4226"
           style="fill:#100f0d;fill-opacity:1;fill-rule:nonzero;stroke:none"
           d="m 3269.29,1081.73 c 18.99,0 33.32,7.46 43,22.41 9.66,14.94 14.5,34.73 14.5,59.35 0,24.61 -4.84,44.48 -14.5,59.61 -9.68,15.11 -24.01,22.68 -43,22.68 -18.99,0 -33.23,-7.57 -42.72,-22.68 -9.5,-15.13 -14.25,-35 -14.25,-59.61 0,-24.62 4.75,-44.41 14.25,-59.35 9.49,-14.95 23.73,-22.41 42.72,-22.41 z m 0.53,-61.19 c -21.81,0 -41.59,3.6 -59.34,10.81 -17.77,7.2 -32.97,17.22 -45.63,30.07 -12.66,12.83 -22.42,27.95 -29.28,45.36 -6.85,17.41 -10.28,36.31 -10.28,56.71 0,20.39 3.43,39.29 10.28,56.71 6.86,17.4 16.62,32.51 29.28,45.36 12.66,12.83 27.86,22.86 45.63,30.06 17.75,7.21 37.53,10.82 59.34,10.82 21.8,0 41.58,-3.61 59.35,-10.82 17.75,-7.2 32.87,-17.23 45.36,-30.06 12.48,-12.85 22.15,-27.96 29.01,-45.36 6.86,-17.42 10.29,-36.32 10.29,-56.71 0,-20.4 -3.43,-39.3 -10.29,-56.71 -6.86,-17.41 -16.53,-32.53 -29.01,-45.36 -12.49,-12.85 -27.61,-22.87 -45.36,-30.07 -17.77,-7.21 -37.55,-10.81 -59.35,-10.81" />
        <path
           inkscape:connector-curvature="0"
           id="path4228"
           style="fill:#100f0d;fill-opacity:1;fill-rule:nonzero;stroke:none"
           d="m 3443.36,1028.97 87.0508,0 0,377.16 -87.0508,0 0,-377.16 z" />
        <path
           inkscape:connector-curvature="0"
           id="path4230"
           style="fill:#100f0d;fill-opacity:1;fill-rule:nonzero;stroke:none"
           d="m 3572.6,1028.97 87.0273,0 0,377.16 -87.0273,0 0,-377.16 z" />
        <path
           inkscape:connector-curvature="0"
           id="path4232"
           style="fill:#100f0d;fill-opacity:1;fill-rule:nonzero;stroke:none"
           d="m 3880.66,1193.03 c -1.76,16.17 -7.2,29.01 -16.34,38.5 -9.15,9.5 -20.77,14.25 -34.82,14.25 -16.54,0 -29.2,-4.75 -37.99,-14.25 -8.79,-9.49 -14.59,-22.33 -17.4,-38.5 l 106.55,0 z m -47.47,-171.97 c -22.15,0 -42.2,3.61 -60.13,10.81 -17.94,7.21 -33.06,17.23 -45.37,30.07 -12.32,12.84 -21.81,28.04 -28.48,45.63 -6.7,17.59 -10.04,36.57 -10.04,56.97 0,20.05 3.34,38.77 10.04,56.18 6.67,17.4 16.16,32.52 28.48,45.36 12.31,12.84 26.9,22.87 43.78,30.07 16.88,7.21 35.69,10.81 56.44,10.81 19.34,0 36.67,-2.99 51.96,-8.96 15.31,-5.99 28.75,-14.24 40.35,-24.8 16.18,-14.76 28.23,-33.49 36.14,-56.17 7.92,-22.68 11.69,-47.74 11.35,-75.17 l -194.13,0 c 2.82,-18.29 9.14,-32.71 18.99,-43.26 9.84,-10.54 23.74,-15.82 41.68,-15.82 11.25,0 20.56,2.38 27.96,7.12 7.38,4.75 13,11.34 16.87,19.78 l 83.88,0 c -2.82,-12.31 -8.1,-24 -15.83,-35.08 -7.74,-11.07 -17.59,-20.66 -29.54,-28.74 -11.26,-8.1 -23.83,-14.25 -37.72,-18.47 -13.89,-4.22 -29.45,-6.33 -46.68,-6.33" />
        <path
           inkscape:connector-curvature="0"
           id="path4234"
           style="fill:#100f0d;fill-opacity:1;fill-rule:nonzero;stroke:none"
           d="m 4128.07,1020.54 c -21.82,0 -41.51,3.6 -59.09,10.81 -17.58,7.2 -32.62,17.22 -45.1,30.07 -12.48,12.83 -22.15,27.95 -29.01,45.36 -6.86,17.41 -10.29,36.31 -10.29,56.71 0,20.39 3.34,39.29 10.03,56.71 6.67,17.4 16.16,32.51 28.48,45.36 12.31,12.83 27.16,22.86 44.58,30.06 17.4,7.21 36.83,10.82 58.29,10.82 18.28,0 34.89,-2.55 49.84,-7.65 14.94,-5.1 27.87,-12.22 38.77,-21.36 10.9,-9.15 19.7,-20.05 26.38,-32.7 6.68,-12.67 11.07,-26.57 13.18,-41.68 l -82.81,0 c -2.82,12.3 -7.83,22.07 -15.04,29.27 -7.21,7.21 -16.96,10.81 -29.27,10.81 -18.65,0 -32.54,-7.11 -41.68,-21.35 -9.15,-14.25 -13.71,-33.68 -13.71,-58.29 0,-24.27 4.56,-43.44 13.71,-57.5 9.14,-14.07 23.03,-21.1 41.68,-21.1 27.42,0 43.07,15.47 46.95,46.42 l 82.28,0 c -0.7,-15.48 -4.13,-29.98 -10.28,-43.52 -6.16,-13.54 -14.77,-25.32 -25.85,-35.34 -11.08,-10.03 -24.45,-17.85 -40.09,-23.48 -15.65,-5.62 -32.97,-8.43 -51.95,-8.43" />
        <path
           inkscape:connector-curvature="0"
           id="path4236"
           style="fill:#100f0d;fill-opacity:1;fill-rule:nonzero;stroke:none"
           d="m 4390.75,1025.81 c -12.66,0 -24.18,1.14 -34.55,3.43 -10.38,2.28 -19.43,6.24 -27.17,11.86 -7.74,5.63 -13.71,13.27 -17.94,22.95 -4.21,9.67 -6.32,21.71 -6.32,36.14 l 0,145.06 -35.87,0 0,53.8 35.87,0 0,85.46 83.87,0 0,-85.46 49.06,0 0,-53.8 -49.06,0 0,-126.6 c 0,-10.55 2.72,-17.59 8.18,-21.1 5.45,-3.52 12.74,-5.27 21.89,-5.27 3.87,0 7.56,0.07 11.08,0.26 3.51,0.17 6.15,0.26 7.91,0.26 l 0,-62.77 c -3.87,-1.06 -9.76,-2.02 -17.67,-2.9 -7.91,-0.88 -17.68,-1.32 -29.28,-1.32" />
        <path
           inkscape:connector-curvature="0"
           id="path4238"
           style="fill:#100f0d;fill-opacity:1;fill-rule:nonzero;stroke:none"
           d="m 4468.82,1299.05 85.97,0 0,-270.08 -85.97,0 0,270.08 z m 0,107.08 85.97,0 0,-69.63 -85.97,0 0,69.63" />
        <path
           inkscape:connector-curvature="0"
           id="path4240"
           style="fill:#100f0d;fill-opacity:1;fill-rule:nonzero;stroke:none"
           d="m 4573.79,1299.05 88.62,0 36.93,-121.85 c 1.75,-7.03 3.6,-13.8 5.53,-20.31 1.93,-6.51 3.61,-12.22 5.01,-17.14 1.41,-5.98 2.82,-11.61 4.22,-16.88 l 1.06,0 c 1.4,5.27 2.81,10.9 4.22,16.88 1.4,4.92 2.98,10.63 4.75,17.14 1.75,6.51 3.69,13.28 5.8,20.31 l 37.45,121.85 85.98,0 -93.36,-270.08 -92.84,0 -93.37,270.08" />
        <path
           inkscape:connector-curvature="0"
           id="path4242"
           style="fill:#100f0d;fill-opacity:1;fill-rule:nonzero;stroke:none"
           d="m 5051.7,1193.03 c -1.77,16.17 -7.21,29.01 -16.35,38.5 -9.15,9.5 -20.76,14.25 -34.81,14.25 -16.55,0 -29.2,-4.75 -37.99,-14.25 -8.79,-9.49 -14.59,-22.33 -17.4,-38.5 l 106.55,0 z m -47.47,-171.97 c -22.16,0 -42.21,3.61 -60.14,10.81 -17.94,7.21 -33.05,17.23 -45.37,30.07 -12.31,12.84 -21.81,28.04 -28.48,45.63 -6.69,17.59 -10.03,36.57 -10.03,56.97 0,20.05 3.34,38.77 10.03,56.18 6.67,17.4 16.17,32.52 28.48,45.36 12.32,12.84 26.91,22.87 43.79,30.07 16.87,7.21 35.68,10.81 56.44,10.81 19.33,0 36.67,-2.99 51.96,-8.96 15.3,-5.99 28.75,-14.24 40.35,-24.8 16.17,-14.76 28.22,-33.49 36.13,-56.17 7.92,-22.68 11.69,-47.74 11.35,-75.17 l -194.12,0 c 2.81,-18.29 9.14,-32.71 18.98,-43.26 9.85,-10.54 23.74,-15.82 41.68,-15.82 11.25,0 20.57,2.38 27.96,7.12 7.39,4.75 13,11.34 16.88,19.78 l 83.87,0 c -2.82,-12.31 -8.09,-24 -15.83,-35.08 -7.73,-11.07 -17.58,-20.66 -29.54,-28.74 -11.26,-8.1 -23.83,-14.25 -37.71,-18.47 -13.9,-4.22 -29.45,-6.33 -46.68,-6.33" />
        <path
           inkscape:connector-curvature="0"
           id="path4244"
           style="fill:#100f0d;fill-opacity:1;fill-rule:nonzero;stroke:none"
           d="m 2850.99,566.469 87.043,0 0,377.16 -87.043,0 0,-377.16 z" />
        <path
           inkscape:connector-curvature="0"
           id="path4246"
           style="fill:#100f0d;fill-opacity:1;fill-rule:nonzero;stroke:none"
           d="m 3159.05,730.531 c -1.76,16.168 -7.21,29.008 -16.35,38.5 -9.16,9.5 -20.76,14.25 -34.82,14.25 -16.53,0 -29.19,-4.75 -37.98,-14.25 -8.79,-9.492 -14.6,-22.332 -17.4,-38.5 l 106.55,0 z m -47.48,-171.972 c -22.15,0 -42.19,3.613 -60.13,10.812 -17.93,7.211 -33.06,17.231 -45.37,30.07 -12.31,12.84 -21.81,28.039 -28.48,45.629 -6.69,17.59 -10.02,36.571 -10.02,56.969 0,20.051 3.33,38.77 10.02,56.18 6.67,17.402 16.17,32.519 28.48,45.363 12.31,12.84 26.9,22.867 43.79,30.066 16.88,7.211 35.69,10.813 56.44,10.813 19.33,0 36.66,-2.992 51.96,-8.961 15.29,-5.988 28.75,-14.238 40.35,-24.801 16.17,-14.758 28.22,-33.488 36.14,-56.168 7.91,-22.679 11.68,-47.742 11.33,-75.172 l -194.11,0 c 2.81,-18.289 9.14,-32.711 18.99,-43.257 9.84,-10.543 23.73,-15.821 41.67,-15.821 11.25,0 20.57,2.379 27.96,7.117 7.38,4.75 13,11.34 16.88,19.782 l 83.87,0 c -2.82,-12.309 -8.09,-24 -15.83,-35.078 -7.74,-11.071 -17.59,-20.661 -29.54,-28.743 -11.25,-8.097 -23.83,-14.25 -37.71,-18.468 -13.9,-4.219 -29.46,-6.332 -46.69,-6.332" />
        <path
           inkscape:connector-curvature="0"
           id="path4248"
           style="fill:#100f0d;fill-opacity:1;fill-rule:nonzero;stroke:none"
           d="m 3382.18,614.469 c 16.17,0 29.28,4.402 39.3,13.203 10.02,8.777 15.03,20.558 15.03,35.34 l 0,32.179 c -5.63,-2.832 -12.22,-5.382 -19.78,-7.652 -7.56,-2.301 -15.74,-4.48 -24.53,-6.598 -16.53,-3.871 -28.48,-8.351 -35.87,-13.453 -7.38,-5.097 -11.07,-12.75 -11.07,-22.949 0,-10.898 3.51,-18.641 10.55,-23.199 7.03,-4.578 15.82,-6.871 26.37,-6.871 z m -27.43,-54.848 c -13.37,0 -25.77,1.758 -37.19,5.27 -11.43,3.507 -21.19,8.789 -29.27,15.82 -8.1,7.027 -14.43,15.648 -18.99,25.848 -4.58,10.203 -6.86,21.972 -6.86,35.339 0,14.782 2.72,27.172 8.18,37.192 5.44,10.031 12.92,18.281 22.41,24.801 9.5,6.5 20.49,11.507 32.97,15.039 12.48,3.5 25.76,6.14 39.83,7.91 25.32,3.16 43.07,6.68 53.28,10.539 10.19,3.871 15.29,10.371 15.29,19.519 0,8.782 -2.9,15.821 -8.7,21.102 -5.8,5.281 -15.22,7.922 -28.22,7.922 -13.72,0 -24.09,-3 -31.12,-8.981 -7.04,-5.972 -11.26,-14.589 -12.66,-25.839 l -79.13,0 c 0.35,12.66 3.16,24.609 8.44,35.867 5.28,11.25 12.93,21.101 22.95,29.543 10.02,8.437 22.59,15.109 37.71,20.039 15.12,4.918 32.88,7.39 53.28,7.39 20.39,0 37.63,-1.851 51.7,-5.543 14.06,-3.687 26.02,-9.226 35.87,-16.609 11.6,-8.449 20.22,-19.168 25.85,-32.18 5.62,-13.019 8.43,-27.961 8.43,-44.839 l 0,-136.098 c 0,-10.902 0.61,-19.434 1.85,-25.57 1.23,-6.172 3.77,-10.473 7.65,-12.93 l 0,-3.703 -83.34,0 c -2.12,2.82 -3.88,6.769 -5.28,11.871 -1.41,5.101 -2.64,11.16 -3.69,18.199 l -1.06,0 c -8.09,-11.258 -18.38,-20.219 -30.86,-26.898 -12.48,-6.68 -28.93,-10.02 -49.32,-10.02" />
        <path
           inkscape:connector-curvature="0"
           id="path4250"
           style="fill:#100f0d;fill-opacity:1;fill-rule:nonzero;stroke:none"
           d="m 3560.47,836.551 82.29,0 0,-42.192 1.58,0 c 9.49,16.172 20.05,27.95 31.65,35.34 11.6,7.383 25.67,11.071 42.2,11.071 8.09,0 13.72,-0.7 16.89,-2.11 l 0,-73.851 -2.11,0 c -26.38,3.871 -47.4,-0.61 -63.04,-13.438 -15.66,-12.84 -23.48,-34.031 -23.48,-63.57 l 0,-121.332 -85.98,0 0,270.082" />
        <path
           inkscape:connector-curvature="0"
           id="path4252"
           style="fill:#100f0d;fill-opacity:1;fill-rule:nonzero;stroke:none"
           d="m 3762.51,836.551 82.81,0 0,-36.922 1.58,0 c 10.2,14.769 21.9,25.93 35.08,33.492 13.2,7.559 29.28,11.34 48.27,11.34 14.77,0 27.96,-2.551 39.56,-7.641 11.61,-5.101 21.45,-12.129 29.55,-21.101 8.08,-8.969 14.23,-19.699 18.45,-32.18 4.22,-12.488 6.34,-26.289 6.34,-41.41 l 0,-175.66 -85.99,0 0,158.261 c 0,14.411 -3.51,26.008 -10.54,34.809 -7.04,8.793 -17.59,13.18 -31.65,13.18 -14.43,0 -25.94,-5.27 -34.55,-15.821 -8.63,-10.546 -12.93,-24.257 -12.93,-41.136 l 0,-149.293 -85.98,0 0,270.082" />
        <path
           inkscape:connector-curvature="0"
           id="path4254"
           style="fill:#100f0d;fill-opacity:1;fill-rule:nonzero;stroke:none"
           d="m 4063.18,836.551 85.98,0 0,-270.082 -85.98,0 0,270.082 z m 0,107.078 85.98,0 0,-69.629 -85.98,0 0,69.629" />
        <path
           inkscape:connector-curvature="0"
           id="path4256"
           style="fill:#100f0d;fill-opacity:1;fill-rule:nonzero;stroke:none"
           d="m 4190.31,836.551 82.82,0 0,-36.922 1.58,0 c 10.19,14.769 21.89,25.93 35.08,33.492 13.19,7.559 29.27,11.34 48.27,11.34 14.76,0 27.96,-2.551 39.56,-7.641 11.6,-5.101 21.44,-12.129 29.54,-21.101 8.08,-8.969 14.24,-19.699 18.46,-32.18 4.21,-12.488 6.33,-26.289 6.33,-41.41 l 0,-175.66 -85.98,0 0,158.261 c 0,14.411 -3.52,26.008 -10.55,34.809 -7.04,8.793 -17.59,13.18 -31.65,13.18 -14.42,0 -25.94,-5.27 -34.55,-15.821 -8.62,-10.546 -12.93,-24.257 -12.93,-41.136 l 0,-149.293 -85.98,0 0,270.082" />
        <path
           inkscape:connector-curvature="0"
           id="path4258"
           style="fill:#100f0d;fill-opacity:1;fill-rule:nonzero;stroke:none"
           d="m 4616,645.07 c 18.64,0 32.44,6.5 41.41,19.52 8.97,13.012 13.45,29.012 13.45,48 0,9.14 -1.14,17.75 -3.43,25.851 -2.29,8.079 -5.8,15.2 -10.55,21.36 -4.74,6.148 -10.55,10.988 -17.41,14.508 -6.85,3.511 -14.68,5.273 -23.47,5.273 -16.18,0 -29.11,-6.062 -38.77,-18.191 -9.68,-12.129 -14.51,-28.582 -14.51,-49.332 0,-20.387 4.83,-36.661 14.51,-48.789 9.66,-12.129 22.59,-18.2 38.77,-18.2 z m 0.52,-171.961 c -37.27,0 -67.52,7.379 -90.72,22.153 -23.21,14.769 -36.92,36.398 -41.15,64.886 l 83.35,0 c 2.45,-7.027 7.38,-13.199 14.76,-18.468 7.4,-5.27 18.28,-7.91 32.71,-7.91 18.28,0 31.47,4.48 39.57,13.449 8.09,8.972 12.13,21.722 12.13,38.25 l 0,26.89 -2.11,0 c -8.1,-9.14 -17.5,-16.609 -28.22,-22.41 -10.74,-5.801 -24.36,-8.711 -40.88,-8.711 -15.13,0 -29.73,2.813 -43.79,8.453 -14.06,5.61 -26.55,13.797 -37.45,24.52 -10.9,10.719 -19.61,24.09 -26.11,40.098 -6.51,15.992 -9.76,34.363 -9.76,55.113 0,19.699 2.72,37.808 8.18,54.34 5.44,16.519 13.18,30.769 23.2,42.718 10.03,11.961 21.98,21.282 35.87,27.961 13.89,6.68 29.28,10.02 46.17,10.02 17.93,0 33.04,-3.34 45.36,-10.02 12.3,-6.679 22.5,-15.652 30.59,-26.902 l 1.06,0 0,29.012 82.29,0 0,-243.699 c 0,-20.403 -3.26,-37.981 -9.76,-52.75 -6.52,-14.77 -15.22,-27.071 -26.12,-36.93 -11.95,-10.543 -26.46,-18.192 -43.51,-22.953 -17.06,-4.739 -35.61,-7.11 -55.66,-7.11" />
        <path
           inkscape:connector-curvature="0"
           id="path4260"
           style="fill:#100f0d;fill-opacity:1;fill-rule:nonzero;stroke:none"
           d="m 1407.173,2273.39 0,284.27 -839.38,0 0,-1990.23 852.927,0 0,284.281 -568.599,0 0,1421.679 555.052,0"
           sodipodi:nodetypes="ccccccccc" />
        <path
           inkscape:connector-curvature="0"
           id="path4262"
           style="fill:#100f0d;fill-opacity:1;fill-rule:nonzero;stroke:none"
           d="m 1988.91,570.02 0,1987.2654 -284.33,0 0,-1987.3444"
           sodipodi:nodetypes="cccc" />
        <path
           inkscape:connector-curvature="0"
           id="path4264"
           style="fill:#100f0d;fill-opacity:1;fill-rule:nonzero;stroke:none"
           d="m 1704.45,851.648 0,-284.187 852.94,0 0,284.269 -852.91,0" />
      </g>
    </g>
    <g
       transform="matrix(1.25,0,0,-1.25,643.56261,322.28518)"
       inkscape:label="ink_ext_XXXXXX"
       id="g4297">
      <g
         transform="scale(0.1,0.1)"
         id="g4299">
        <path
           inkscape:connector-curvature="0"
           id="path4301"
           style="fill:#100f0d;fill-opacity:1;fill-rule:nonzero;stroke:none"
           d="m 3349.46,647.488 c -10.15,13.801 -15.2,31.844 -15.2,54.231 0,21.972 4.62,40.32 13.9,54.972 9.21,14.7 23.29,22.039 42.18,22.039 17.49,0 30.61,-7.058 39.54,-21 8.9,-13.968 13.39,-32.449 13.39,-55.519 0,-23.379 -4.49,-41.82 -13.39,-55.301 -8.93,-13.441 -21.73,-20.16 -38.51,-20.16 -17.82,0 -31.79,6.879 -41.91,20.738 z m 112.91,-78.617 c 14.17,6.449 26.2,15.84 36.14,28.039 9.95,12.199 17.62,27.141 23.07,44.82 5.42,17.602 8.09,37.602 8.09,59.989 0,20.222 -2.67,38.98 -8.09,56.332 -5.45,17.238 -13.12,32.281 -23.07,44.988 -9.94,12.731 -21.97,22.723 -36.14,29.883 -14.17,7.168 -29.96,10.789 -47.44,10.789 -18.48,0 -33.73,-3.512 -45.77,-10.5 -12.12,-7.02 -22.32,-16.223 -30.72,-27.801 l -1.56,0 0,136.77 -85.39,0 0,-374.61 81.72,0 0,34.059 1.05,0 c 8.39,-13.949 19.54,-24.539 33.55,-31.707 13.97,-7.16 29.87,-10.75 47.68,-10.75 17.11,0 32.71,3.269 46.88,9.699 z m -411.26,53.18 c -7.01,4.539 -10.52,12.211 -10.52,23.078 0,10.152 3.67,17.691 11.01,22.793 7.31,5 19.21,9.519 35.62,13.316 8.69,2.102 16.87,4.262 24.38,6.563 7.52,2.258 14.05,4.801 19.66,7.578 l 0,-31.93 c 0,-14.679 -5.01,-26.379 -14.94,-35.109 -9.99,-8.738 -23,-13.11 -39.03,-13.11 -10.49,0 -19.24,2.27 -26.18,6.821 z m 47.9,-51.313 c 12.42,6.594 22.59,15.492 30.63,26.711 l 1.09,0 c 1.02,-7 2.26,-12.98 3.64,-18.117 1.4,-5.043 3.15,-8.98 5.26,-11.762 l 82.77,0 0,3.649 c -3.86,2.48 -6.42,6.711 -7.59,12.84 -1.23,6.121 -1.83,14.57 -1.83,25.421 l 0,135.122 c 0,16.757 -2.8,31.617 -8.42,44.57 -5.56,12.918 -14.14,23.598 -25.66,32.008 -9.77,7.3 -21.65,12.75 -35.6,16.449 -13.97,3.621 -31.06,5.512 -51.35,5.512 -20.25,0 -37.92,-2.43 -52.93,-7.371 -15,-4.829 -27.52,-11.469 -37.46,-19.891 -9.95,-8.34 -17.54,-18.141 -22.82,-29.309 -5.21,-11.23 -8,-23.07 -8.32,-35.648 l 78.59,0 c 1.4,11.219 5.56,19.777 12.54,25.668 6.99,5.93 17.28,8.922 30.93,8.922 12.9,0 22.27,-2.614 27.99,-7.852 5.78,-5.25 8.71,-12.191 8.71,-20.969 0,-9.101 -5.12,-15.562 -15.24,-19.371 -10.12,-3.84 -27.77,-7.308 -52.92,-10.5 -13.95,-1.699 -27.12,-4.332 -39.54,-7.851 -12.39,-3.489 -23.29,-8.481 -32.73,-14.918 -9.42,-6.461 -16.9,-14.66 -22.29,-24.66 -5.41,-9.95 -8.15,-22.282 -8.15,-36.903 0,-13.277 2.26,-24.988 6.85,-35.09 4.56,-10.109 10.8,-18.726 18.86,-25.687 8.05,-6.992 17.71,-12.223 29.04,-15.762 11.39,-3.449 23.7,-5.211 36.94,-5.211 20.33,0 36.6,3.321 49.01,10 z m -256.45,-3.168 86.41,0 0,374.61 -86.41,0 0,-374.61 z m 1258.99,516.46 c -7.06,4.53 -10.46,12.23 -10.46,23.07 0,10.07 3.62,17.67 11.03,22.75 7.29,5.04 19.12,9.47 35.58,13.42 8.72,2.02 16.87,4.21 24.34,6.47 7.53,2.3 14.01,4.82 19.67,7.61 l 0,-31.95 c 0,-14.68 -5.03,-26.4 -14.98,-35.12 -9.9,-8.7 -22.97,-13.11 -38.95,-13.11 -10.57,0 -19.25,2.27 -26.23,6.86 z m 47.92,-51.42 c 12.4,6.69 22.63,15.58 30.63,26.8 l 1.1,0 c 1.05,-7.05 2.24,-13.06 3.65,-18.14 1.34,-5.01 3.2,-8.95 5.2,-11.79 l 82.8,0 0,3.67 c -3.86,2.45 -6.38,6.78 -7.58,12.88 -1.24,6.09 -1.84,14.57 -1.84,25.41 l 0,135.14 c 0,16.76 -2.8,31.6 -8.42,44.55 -5.58,12.9 -14.06,23.58 -25.64,31.93 -9.72,7.36 -21.73,12.81 -35.64,16.54 -14.01,3.65 -31.1,5.5 -51.3,5.5 -20.25,0 -37.92,-2.46 -52.91,-7.36 -15.08,-4.85 -27.54,-11.48 -37.5,-19.88 -9.94,-8.35 -17.52,-18.24 -22.79,-29.38 -5.23,-11.17 -8,-23.04 -8.39,-35.62 l 78.57,0 c 1.4,11.23 5.6,19.73 12.6,25.7 6.96,5.91 17.29,8.91 30.91,8.91 12.94,0 22.25,-2.63 28.05,-7.88 5.71,-5.19 8.61,-12.23 8.61,-20.98 0,-9.04 -5.01,-15.54 -15.17,-19.34 -10.12,-3.84 -27.82,-7.38 -52.89,-10.46 -13.98,-1.8 -27.21,-4.39 -39.61,-7.91 -12.42,-3.47 -23.32,-8.44 -32.74,-14.93 -9.45,-6.43 -16.81,-14.65 -22.29,-24.57 -5.4,-9.98 -8.08,-22.29 -8.08,-36.95 0,-13.3 2.24,-25.01 6.78,-35.13 4.56,-10.13 10.85,-18.73 18.92,-25.63 8.01,-7 17.68,-12.26 29.07,-15.72 11.3,-3.53 23.6,-5.29 36.93,-5.29 20.2,0 36.58,3.34 48.97,9.93 z m -254.88,-3.13 85.4,0 0,268.26 -85.4,0 0,-268.26 z m 0,305.5 85.4,0 0,69.14 -85.4,0 0,-69.14 z m -213.33,-225.86 c -9.2,13.64 -13.81,32.17 -13.81,55.59 0,22.62 4.67,41.11 14.14,55.26 9.42,14.16 22.68,21.2 39.78,21.2 9.45,0 17.57,-1.92 24.4,-5.75 6.81,-3.86 12.56,-9.22 17.29,-15.97 4.69,-6.81 8.18,-15.03 10.5,-24.61 2.22,-9.64 3.37,-20 3.37,-31.15 0,-22.02 -5.04,-40.07 -14.92,-54.08 -10,-13.9 -23.83,-20.91 -41.67,-20.91 -16.76,0 -29.77,6.82 -39.08,20.42 z m 63.96,-76.2 c 13.45,7.84 24.15,18.73 32.2,32.78 l 1.07,0 0,-36.22 81.72,0 0,374.64 -85.36,0 0,-136.72 -1.56,0 c -8.07,11.15 -17.89,20.32 -29.37,27.45 -11.55,7.18 -26.8,10.83 -45.57,10.83 -17.52,0 -33.41,-3.54 -47.72,-10.54 -14.36,-6.99 -26.61,-16.7 -36.89,-29.11 -10.36,-12.38 -18.37,-27.31 -24.15,-44.75 -5.73,-17.5 -8.64,-36.7 -8.64,-57.59 0,-22.4 2.91,-42.43 8.64,-60.07 5.78,-17.6 13.93,-32.53 24.42,-44.75 10.45,-12.25 22.81,-21.59 37.16,-28.03 14.33,-6.45 29.98,-9.69 47.18,-9.69 17.76,0 33.44,3.94 46.87,11.77 z m -377.95,159.54 c 2.8,16.08 8.55,28.82 17.3,38.25 8.76,9.41 21.29,14.13 37.72,14.13 13.96,0 25.48,-4.72 34.58,-14.13 9.11,-9.43 14.49,-22.17 16.22,-38.25 l -105.82,0 z m 105.06,-164.49 c 13.76,4.16 26.28,10.23 37.46,18.32 11.88,8.02 21.67,17.54 29.3,28.56 7.7,11.01 12.99,22.61 15.74,34.76 l -83.31,0 c -3.83,-8.35 -9.42,-14.9 -16.76,-19.62 -7.37,-4.61 -16.57,-7.02 -27.74,-7.02 -17.87,0 -31.6,5.19 -41.43,15.65 -9.77,10.5 -16.05,24.85 -18.84,43.05 l 192.8,0 c 0.38,27.2 -3.37,52.06 -11.25,74.61 -7.86,22.53 -19.86,41.13 -35.89,55.77 -11.53,10.52 -24.91,18.7 -40.08,24.63 -15.2,5.96 -32.39,9 -51.63,9 -20.59,0 -39.24,-3.65 -56.02,-10.83 -16.78,-7.13 -31.31,-17.1 -43.51,-29.85 -12.2,-12.74 -21.63,-27.8 -28.3,-45.03 -6.64,-17.34 -9.94,-35.93 -9.94,-55.8 0,-20.24 3.3,-39.16 9.94,-56.58 6.67,-17.55 16.1,-32.58 28.3,-45.4 12.2,-12.65 27.26,-22.64 45.05,-29.76 17.8,-7.18 37.73,-10.75 59.75,-10.75 17.08,0 32.57,2.03 46.36,6.29 z m -629.77,1.51 85.38,0 0,150.37 c 0,16.08 3.81,29.18 11.28,39.31 7.5,10.17 17.92,15.24 31.2,15.24 12.88,0 22.43,-3.97 28.53,-11.83 6.09,-7.85 9.15,-19.14 9.15,-33.76 l 0,-159.33 85.41,0 0,150.37 c 0,16.08 3.67,29.18 11.01,39.31 7.34,10.17 17.84,15.24 31.44,15.24 12.96,0 22.4,-3.97 28.52,-11.83 6.18,-7.85 9.18,-19.14 9.18,-33.76 l 0,-159.33 85.44,0 0,174.51 c 0,15 -1.94,28.82 -5.77,41.4 -3.89,12.56 -9.53,23.25 -17.06,32.19 -7.5,8.87 -17.03,15.83 -28.52,20.7 -11.53,4.85 -24.81,7.4 -39.81,7.4 -17.49,0 -33.28,-3.84 -47.42,-11.34 -14.19,-7.47 -26.5,-19.47 -36.91,-35.89 l -1.11,0 c -6.97,14.7 -16.84,26.17 -29.56,34.61 -12.78,8.35 -28.06,12.62 -45.85,12.62 -19.59,0 -35.94,-4.27 -49,-12.62 -13.09,-8.44 -23.83,-19.58 -32.26,-33.59 l -1.53,0 0,38.27 -81.74,0 0,-268.26 z m 716.97,404.83 c 7.82,0.84 13.68,1.85 17.54,2.93 l 0,62.32 c -1.7,0 -4.35,-0.12 -7.86,-0.29 -3.42,-0.16 -7.12,-0.27 -10.98,-0.27 -9.12,0 -16.38,1.79 -21.75,5.27 -5.45,3.49 -8.13,10.53 -8.13,20.96 l 0,125.73 48.72,0 0,53.46 -48.72,0 0,84.87 -83.3,0 0,-84.87 -35.6,0 0,-53.46 35.6,0 0,-144.1 c 0,-14.3 2.1,-26.28 6.31,-35.86 4.16,-9.62 10.07,-17.19 17.81,-22.77 7.67,-5.58 16.65,-9.54 26.96,-11.8 10.31,-2.29 21.75,-3.36 34.33,-3.36 11.5,0 21.24,0.36 29.07,1.24 z m -262.76,1.85 85.39,0 0,268.26 -85.39,0 0,-268.26 z m 0,305.42 85.39,0 0,69.17 -85.39,0 0,-69.17 z m -454.21,-305.42 85.38,0 0,150.37 c 0,16.04 3.81,29.16 11.28,39.3 7.5,10.12 17.92,15.22 31.2,15.22 12.88,0 22.43,-3.96 28.53,-11.82 6.09,-7.85 9.15,-19.13 9.15,-33.8 l 0,-159.27 85.41,0 0,150.37 c 0,16.04 3.67,29.16 11.01,39.3 7.34,10.12 17.84,15.22 31.44,15.22 12.96,0 22.4,-3.96 28.52,-11.82 6.18,-7.85 9.18,-19.13 9.18,-33.8 l 0,-159.27 85.44,0 0,174.43 c 0,15.08 -1.94,28.85 -5.77,41.42 -3.89,12.58 -9.53,23.29 -17.06,32.25 -7.5,8.87 -17.03,15.76 -28.52,20.7 -11.53,4.89 -24.81,7.32 -39.81,7.32 -17.49,0 -33.28,-3.76 -47.42,-11.29 -14.19,-7.53 -26.5,-19.44 -36.91,-35.87 l -1.11,0 c -6.97,14.64 -16.84,26.18 -29.56,34.57 -12.78,8.4 -28.06,12.59 -45.85,12.59 -19.59,0 -35.94,-4.19 -49,-12.59 -13.09,-8.39 -23.83,-19.56 -32.26,-33.53 l -1.53,0 0,38.26 -81.74,0 0,-268.26 z m -2273.99,268.42 0,-1136.978 1136.84,0 0,284.25 -852.734,0 0,852.728 -284.106,0 z m 1705.34,-1136.978 0,852.738 -852.75,0 0,852.72 -852.726,0 0,284.25 1136.976,0 0,-852.73 852.72,0 0,-1136.978 -284.22,0" />
      </g>
    </g>
  </g>
</svg>
