<?xml version="1.0" encoding="utf-8"?>
<!DOCTYPE svg PUBLIC "-//W3C//DTD SVG 1.1//EN" "http://www.w3.org/Graphics/SVG/1.1/DTD/svg11.dtd">
<svg version="1.1" id="Layer_1" xmlns="http://www.w3.org/2000/svg" xmlns:xlink="http://www.w3.org/1999/xlink" x="0px" y="0px"
   width="517px" height="200px" viewBox="0 0 517 200" enable-background="new 0 0 100 100" xml:space="preserve">
    <defs></defs>
    <g id="Page-1" stroke="none" stroke-width="1" fill="none" fill-rule="evenodd">
        <path d="M198.973,113.918 L198.973,85.471 L85.282,85.495 L85.272,199.215 L198.973,199.215 L198.973,170.737 L113.701,170.737 L113.701,113.918 L198.973,113.918 L198.973,113.918 Z M198.973,28.644 L85.272,28.644 L85.272,85.475 L28.451,85.496 L28.445,199.207 L0,199.207 L0,57.069 L56.869,57.069 L56.869,0.223 L198.973,0.223 L198.973,28.644 L198.973,28.644 Z M504.668,200 C500.711,200 497.583,199.153 495.282,197.456 C492.974,195.761 491.748,193.43 491.611,190.457 L499.679,190.457 C499.853,191.787 500.363,192.785 501.204,193.446 C502.046,194.107 503.174,194.441 504.613,194.441 C505.899,194.441 506.926,194.22 507.679,193.764 C508.433,193.305 508.806,192.642 508.806,191.766 C508.806,191.171 508.608,190.69 508.231,190.326 C507.843,189.958 507.337,189.662 506.708,189.434 C506.077,189.205 505.359,189.033 504.535,188.91 C503.711,188.79 502.859,188.641 501.992,188.467 C500.836,188.252 499.679,187.996 498.531,187.703 C497.374,187.405 496.335,186.963 495.41,186.368 C494.481,185.773 493.739,184.981 493.178,183.983 C492.622,182.982 492.338,181.7 492.338,180.126 C492.338,178.734 492.646,177.495 493.258,176.403 C493.872,175.322 494.701,174.42 495.749,173.703 C496.798,172.985 498.033,172.446 499.451,172.08 C500.861,171.709 502.352,171.525 503.928,171.525 C507.738,171.525 510.652,172.294 512.688,173.832 C514.715,175.371 515.829,177.475 516.044,180.126 L508.18,180.126 C508.001,178.901 507.54,178.074 506.786,177.634 C506.035,177.2 505.068,176.985 503.879,176.985 C502.833,176.985 501.942,177.179 501.231,177.583 C500.514,177.987 500.158,178.606 500.158,179.445 C500.158,179.94 500.328,180.324 500.676,180.6 C501.028,180.88 501.503,181.118 502.096,181.311 C502.688,181.501 503.38,181.668 504.17,181.801 C504.95,181.945 505.766,182.085 506.607,182.224 C507.793,182.434 508.99,182.687 510.195,182.982 C511.4,183.281 512.507,183.747 513.498,184.373 C514.492,184.999 515.308,185.856 515.934,186.92 C516.564,187.985 516.884,189.376 516.884,191.089 C516.884,192.551 516.571,193.85 515.965,194.961 C515.355,196.085 514.508,197.014 513.421,197.748 C512.337,198.479 511.041,199.04 509.541,199.425 C508.032,199.809 506.404,200 504.668,200 L504.668,200 Z M463.344,172.313 L471.574,172.313 L471.574,175.986 L471.742,175.986 C472.747,174.516 473.914,173.41 475.224,172.652 C476.538,171.905 478.135,171.525 480.02,171.525 C481.486,171.525 482.802,171.78 483.956,172.29 C485.102,172.799 486.087,173.495 486.89,174.384 C487.691,175.275 488.303,176.344 488.724,177.583 C489.148,178.828 489.353,180.2 489.353,181.7 L489.353,199.165 L480.809,199.165 L480.809,183.433 C480.809,181.999 480.455,180.845 479.762,179.975 C479.056,179.096 478.007,178.66 476.615,178.66 C475.182,178.66 474.034,179.185 473.177,180.231 C472.322,181.285 471.89,182.644 471.89,184.321 L471.89,199.165 L463.344,199.165 L463.344,172.313 L463.344,172.313 Z M446.412,193.916 C448.301,193.916 449.718,193.177 450.684,191.689 C451.645,190.204 452.126,188.237 452.126,185.789 C452.126,183.343 451.645,181.366 450.684,179.865 C449.718,178.366 448.301,177.612 446.412,177.612 C444.521,177.612 443.102,178.366 442.161,179.865 C441.218,181.366 440.752,183.343 440.752,185.789 C440.752,188.237 441.218,190.204 442.161,191.689 C443.102,193.177 444.521,193.916 446.412,193.916 L446.412,193.916 Z M446.46,200 C444.293,200 442.33,199.638 440.561,198.923 C438.797,198.207 437.288,197.211 436.029,195.934 C434.768,194.662 433.8,193.162 433.117,191.428 C432.434,189.695 432.091,187.818 432.091,185.789 C432.091,183.767 432.434,181.886 433.117,180.154 C433.8,178.422 434.768,176.918 436.029,175.643 C437.288,174.369 438.797,173.37 440.561,172.652 C442.33,171.945 444.293,171.582 446.46,171.582 C448.635,171.582 450.596,171.945 452.363,172.652 C454.129,173.37 455.63,174.369 456.869,175.643 C458.11,176.918 459.07,178.422 459.752,180.154 C460.431,181.886 460.775,183.767 460.775,185.789 C460.775,187.818 460.431,189.695 459.752,191.428 C459.07,193.162 458.11,194.662 456.869,195.934 C455.63,197.211 454.129,198.207 452.363,198.923 C450.596,199.638 448.635,200 446.46,200 L446.46,200 Z M420.822,199.165 L429.366,199.165 L429.366,172.313 L420.822,172.313 L420.822,199.165 Z M420.822,168.594 L429.366,168.594 L429.366,161.669 L420.822,161.669 L420.822,168.594 Z M412.907,199.474 C411.646,199.474 410.496,199.363 409.468,199.138 C408.439,198.908 407.538,198.518 406.767,197.959 C405.998,197.395 405.405,196.634 404.988,195.676 C404.567,194.712 404.362,193.516 404.362,192.079 L404.362,177.662 L400.791,177.662 L400.791,172.313 L404.362,172.313 L404.362,163.821 L412.696,163.821 L412.696,172.313 L417.571,172.313 L417.571,177.662 L412.696,177.662 L412.696,190.251 C412.696,191.3 412.968,191.995 413.508,192.342 C414.05,192.691 414.773,192.866 415.684,192.866 C416.069,192.866 416.437,192.862 416.787,192.843 C417.135,192.823 417.395,192.819 417.571,192.819 L417.571,199.055 C417.187,199.165 416.596,199.258 415.81,199.348 C415.028,199.433 414.055,199.474 412.907,199.474 L412.907,199.474 Z M387.103,200 C384.944,200 382.981,199.638 381.232,198.923 C379.482,198.207 377.988,197.211 376.751,195.934 C375.511,194.662 374.548,193.162 373.865,191.428 C373.186,189.695 372.847,187.818 372.847,185.789 C372.847,183.767 373.174,181.886 373.843,180.154 C374.509,178.422 375.447,176.918 376.669,175.643 C377.894,174.369 379.373,173.37 381.103,172.652 C382.832,171.945 384.765,171.582 386.897,171.582 C388.714,171.582 390.366,171.834 391.85,172.341 C393.338,172.849 394.625,173.557 395.702,174.467 C396.792,175.371 397.661,176.456 398.324,177.719 C398.992,178.971 399.434,180.355 399.639,181.86 L391.407,181.86 C391.131,180.635 390.629,179.662 389.918,178.949 C389.198,178.233 388.224,177.868 387,177.868 C385.147,177.868 383.768,178.581 382.861,179.997 C381.951,181.412 381.499,183.343 381.499,185.789 C381.499,188.199 381.951,190.107 382.861,191.506 C383.768,192.9 385.147,193.606 387,193.606 C389.729,193.606 391.283,192.066 391.669,188.992 L399.848,188.992 C399.778,190.528 399.438,191.963 398.827,193.314 C398.216,194.662 397.359,195.828 396.259,196.826 C395.157,197.827 393.828,198.604 392.271,199.165 C390.719,199.715 389,200 387.103,200 L387.103,200 Z M362.513,182.85 C362.338,181.249 361.8,179.975 360.889,179.026 C359.981,178.08 358.826,177.612 357.427,177.612 C355.79,177.612 354.53,178.08 353.652,179.026 C352.78,179.975 352.201,181.249 351.923,182.85 L362.513,182.85 L362.513,182.85 Z M357.801,199.946 C355.594,199.946 353.601,199.592 351.817,198.872 C350.037,198.161 348.535,197.161 347.314,195.882 C346.085,194.605 345.142,193.095 344.478,191.347 C343.814,189.606 343.482,187.713 343.482,185.683 C343.482,183.693 343.814,181.832 344.478,180.102 C345.142,178.373 346.085,176.869 347.314,175.598 C348.535,174.314 349.984,173.319 351.664,172.602 C353.338,171.89 355.21,171.525 357.272,171.525 C359.198,171.525 360.918,171.828 362.436,172.419 C363.957,173.017 365.298,173.832 366.45,174.882 C368.053,176.353 369.25,178.213 370.041,180.471 C370.828,182.722 371.199,185.213 371.171,187.938 L351.875,187.938 C352.149,189.756 352.78,191.192 353.757,192.241 C354.735,193.286 356.121,193.811 357.9,193.811 C359.018,193.811 359.948,193.578 360.679,193.102 C361.417,192.628 361.973,191.976 362.357,191.142 L370.695,191.142 C370.417,192.361 369.891,193.525 369.123,194.623 C368.355,195.724 367.375,196.679 366.186,197.484 C365.068,198.289 363.817,198.9 362.436,199.321 C361.058,199.736 359.509,199.946 357.801,199.946 L357.801,199.946 Z M315.219,172.313 L323.453,172.313 L323.453,175.986 L323.612,175.986 C324.623,174.516 325.786,173.41 327.097,172.652 C328.409,171.905 330.011,171.525 331.896,171.525 C333.36,171.525 334.676,171.78 335.83,172.29 C336.979,172.799 337.959,173.495 338.764,174.384 C339.569,175.275 340.181,176.344 340.599,177.583 C341.023,178.828 341.226,180.2 341.226,181.7 L341.226,199.165 L332.68,199.165 L332.68,183.433 C332.68,181.999 332.331,180.845 331.63,179.975 C330.933,179.096 329.885,178.66 328.486,178.66 C327.054,178.66 325.911,179.185 325.051,180.231 C324.192,181.285 323.765,182.644 323.765,184.321 L323.765,199.165 L315.219,199.165 L315.219,172.313 L315.219,172.313 Z M285.961,172.313 L294.19,172.313 L294.19,175.986 L294.354,175.986 C295.361,174.516 296.525,173.41 297.84,172.652 C299.147,171.905 300.748,171.525 302.635,171.525 C304.103,171.525 305.417,171.78 306.57,172.29 C307.726,172.799 308.7,173.495 309.502,174.384 C310.31,175.275 310.917,176.344 311.339,177.583 C311.758,178.828 311.971,180.2 311.971,181.7 L311.971,199.165 L303.422,199.165 L303.422,183.433 C303.422,181.999 303.073,180.845 302.374,179.975 C301.678,179.096 300.623,178.66 299.229,178.66 C297.794,178.66 296.652,179.185 295.792,180.231 C294.934,181.285 294.51,182.644 294.51,184.321 L294.51,199.165 L285.961,199.165 L285.961,172.313 L285.961,172.313 Z M269.181,193.916 C271.07,193.916 272.498,193.177 273.456,191.689 C274.417,190.204 274.897,188.237 274.897,185.789 C274.897,183.343 274.417,181.366 273.456,179.865 C272.498,178.366 271.07,177.612 269.181,177.612 C267.293,177.612 265.882,178.366 264.935,179.865 C263.99,181.366 263.517,183.343 263.517,185.789 C263.517,188.237 263.99,190.204 264.935,191.689 C265.882,193.177 267.293,193.916 269.181,193.916 L269.181,193.916 Z M269.234,200 C267.068,200 265.101,199.638 263.334,198.923 C261.571,198.207 260.058,197.211 258.8,195.934 C257.54,194.662 256.576,193.162 255.89,191.428 C255.206,189.695 254.87,187.818 254.87,185.789 C254.87,183.767 255.206,181.886 255.89,180.154 C256.576,178.422 257.54,176.918 258.8,175.643 C260.058,174.369 261.571,173.37 263.334,172.652 C265.101,171.945 267.068,171.582 269.234,171.582 C271.406,171.582 273.367,171.945 275.135,172.652 C276.902,173.37 278.403,174.369 279.642,175.643 C280.88,176.918 281.85,178.422 282.531,180.154 C283.208,181.886 283.548,183.767 283.548,185.789 C283.548,187.818 283.208,189.695 282.531,191.428 C281.85,193.162 280.88,194.662 279.642,195.934 C278.403,197.211 276.902,198.207 275.135,198.923 C273.367,199.638 271.406,200 269.234,200 L269.234,200 Z M240.448,200 C238.281,200 236.324,199.638 234.575,198.923 C232.824,198.207 231.333,197.211 230.092,195.934 C228.85,194.662 227.892,193.162 227.206,191.428 C226.529,189.695 226.189,187.818 226.189,185.789 C226.189,183.767 226.519,181.886 227.186,180.154 C227.849,178.422 228.792,176.918 230.013,175.643 C231.233,174.369 232.717,173.37 234.448,172.652 C236.177,171.945 238.105,171.582 240.239,171.582 C242.052,171.582 243.705,171.834 245.196,172.341 C246.682,172.849 247.963,173.557 249.05,174.467 C250.132,175.371 251.005,176.456 251.674,177.719 C252.34,178.971 252.774,180.355 252.978,181.86 L244.748,181.86 C244.469,180.635 243.966,179.662 243.256,178.949 C242.538,178.233 241.566,177.868 240.344,177.868 C238.489,177.868 237.105,178.581 236.203,179.997 C235.292,181.412 234.836,183.343 234.836,185.789 C234.836,188.199 235.292,190.107 236.203,191.506 C237.105,192.9 238.489,193.606 240.344,193.606 C243.067,193.606 244.621,192.066 245.01,188.992 L253.19,188.992 C253.122,190.528 252.779,191.963 252.164,193.314 C251.558,194.662 250.699,195.828 249.597,196.826 C248.497,197.827 247.173,198.604 245.616,199.165 C244.061,199.715 242.339,200 240.448,200 L240.448,200 Z M361.621,147.724 C363.509,147.724 364.934,146.981 365.896,145.497 C366.857,144.012 367.336,142.045 367.336,139.598 C367.336,137.152 366.857,135.173 365.896,133.672 C364.934,132.168 363.509,131.419 361.621,131.419 C359.734,131.419 358.319,132.168 357.378,133.672 C356.43,135.173 355.957,137.152 355.957,139.598 C355.957,142.045 356.43,144.012 357.378,145.497 C358.319,146.981 359.734,147.724 361.621,147.724 L361.621,147.724 Z M361.677,153.807 C359.509,153.807 357.54,153.45 355.779,152.729 C354.01,152.019 352.498,151.019 351.244,149.745 C349.982,148.471 349.015,146.965 348.324,145.233 C347.65,143.503 347.307,141.624 347.307,139.598 C347.307,137.571 347.65,135.69 348.324,133.963 C349.015,132.23 349.982,130.73 351.244,129.449 C352.498,128.181 354.01,127.18 355.779,126.463 C357.54,125.747 359.509,125.385 361.677,125.385 C363.839,125.385 365.808,125.747 367.572,126.463 C369.339,127.18 370.843,128.181 372.086,129.449 C373.327,130.73 374.285,132.23 374.968,133.963 C375.646,135.69 375.988,137.571 375.988,139.598 C375.988,141.624 375.646,143.503 374.968,145.233 C374.285,146.965 373.327,148.471 372.086,149.745 C370.843,151.019 369.339,152.019 367.572,152.729 C365.808,153.45 363.839,153.807 361.677,153.807 L361.677,153.807 Z M329.113,126.124 L337.294,126.124 L337.294,130.32 L337.446,130.32 C338.396,128.708 339.444,127.538 340.595,126.801 C341.746,126.07 343.15,125.705 344.792,125.705 C345.594,125.705 346.152,125.772 346.464,125.913 L346.464,133.253 L346.26,133.253 C343.638,132.87 341.545,133.32 339.995,134.586 C338.441,135.866 337.663,137.972 337.663,140.912 L337.663,152.964 L329.113,152.964 L329.113,126.124 L329.113,126.124 Z M313.648,153.807 C311.478,153.807 309.522,153.45 307.775,152.729 C306.023,152.019 304.533,151.019 303.292,149.745 C302.049,148.471 301.09,146.965 300.405,145.233 C299.725,143.503 299.385,141.624 299.385,139.598 C299.385,137.571 299.72,135.69 300.38,133.963 C301.041,132.23 301.989,130.73 303.209,129.449 C304.435,128.181 305.912,127.18 307.641,126.463 C309.372,125.747 311.306,125.385 313.438,125.385 C315.258,125.385 316.902,125.639 318.39,126.152 C319.88,126.653 321.166,127.364 322.245,128.274 C323.328,129.18 324.206,130.264 324.872,131.525 C325.532,132.783 325.969,134.162 326.177,135.663 L317.948,135.663 C317.666,134.443 317.172,133.474 316.455,132.754 C315.737,132.039 314.764,131.678 313.538,131.678 C311.687,131.678 310.31,132.386 309.398,133.804 C308.492,135.22 308.034,137.152 308.034,139.598 C308.034,142.011 308.492,143.919 309.398,145.319 C310.31,146.71 311.687,147.416 313.538,147.416 C316.267,147.416 317.823,145.874 318.209,142.796 L326.385,142.796 C326.321,144.338 325.974,145.777 325.365,147.121 C324.754,148.471 323.896,149.641 322.799,150.64 C321.697,151.635 320.365,152.412 318.812,152.964 C317.256,153.528 315.534,153.807 313.648,153.807 L313.648,153.807 Z M283.443,148.199 C285.048,148.199 286.355,147.764 287.349,146.884 C288.347,146.013 288.843,144.845 288.843,143.37 L288.843,140.177 C288.285,140.449 287.631,140.709 286.88,140.935 C286.13,141.162 285.316,141.377 284.439,141.591 C282.799,141.98 281.61,142.421 280.873,142.932 C280.143,143.433 279.772,144.195 279.772,145.213 C279.772,146.289 280.124,147.059 280.824,147.518 C281.523,147.968 282.394,148.199 283.443,148.199 L283.443,148.199 Z M280.717,153.651 C279.387,153.651 278.157,153.477 277.019,153.13 C275.888,152.778 274.914,152.251 274.109,151.557 C273.31,150.853 272.674,149.995 272.222,148.983 C271.771,147.968 271.543,146.803 271.543,145.47 C271.543,144.004 271.813,142.768 272.351,141.777 C272.898,140.779 273.638,139.954 274.584,139.313 C275.526,138.663 276.618,138.162 277.861,137.813 C279.1,137.465 280.424,137.206 281.82,137.027 C284.33,136.711 286.1,136.37 287.118,135.979 C288.126,135.597 288.638,134.948 288.638,134.042 C288.638,133.167 288.347,132.463 287.77,131.938 C287.196,131.419 286.26,131.158 284.967,131.158 C283.6,131.158 282.571,131.454 281.871,132.048 C281.174,132.637 280.753,133.496 280.61,134.617 L272.752,134.617 C272.784,133.361 273.06,132.168 273.589,131.054 C274.109,129.937 274.87,128.953 275.868,128.11 C276.863,127.275 278.112,126.611 279.613,126.124 C281.121,125.631 282.886,125.385 284.915,125.385 C286.938,125.385 288.651,125.577 290.052,125.942 C291.448,126.307 292.638,126.859 293.616,127.593 C294.774,128.429 295.628,129.494 296.184,130.788 C296.743,132.082 297.024,133.567 297.024,135.248 L297.024,148.775 C297.024,149.862 297.088,150.708 297.21,151.315 C297.328,151.925 297.582,152.359 297.967,152.598 L297.967,152.964 L289.684,152.964 C289.472,152.692 289.296,152.296 289.16,151.789 C289.019,151.284 288.896,150.677 288.794,149.979 L288.69,149.979 C287.884,151.102 286.861,151.995 285.618,152.656 C284.377,153.318 282.745,153.651 280.717,153.651 L280.717,153.651 Z M227.396,126.124 L235.571,126.124 L235.571,129.953 L235.73,129.953 C236.568,128.55 237.643,127.434 238.955,126.592 C240.265,125.759 241.896,125.335 243.856,125.335 C245.639,125.335 247.173,125.759 248.444,126.592 C249.72,127.434 250.709,128.588 251.405,130.058 L251.511,130.058 C252.561,128.413 253.795,127.217 255.213,126.463 C256.622,125.712 258.208,125.335 259.957,125.335 C261.457,125.335 262.787,125.579 263.938,126.07 C265.089,126.561 266.047,127.248 266.801,128.141 C267.551,129.036 268.115,130.108 268.503,131.364 C268.884,132.622 269.08,134.006 269.08,135.507 L269.08,152.964 L260.532,152.964 L260.532,137.027 C260.532,135.561 260.224,134.431 259.613,133.65 C259.002,132.861 258.05,132.463 256.755,132.463 C255.398,132.463 254.346,132.972 253.608,133.988 C252.875,135.001 252.506,136.31 252.506,137.922 L252.506,152.964 L243.964,152.964 L243.964,137.027 C243.964,135.561 243.656,134.431 243.043,133.65 C242.433,132.861 241.479,132.463 240.188,132.463 C238.856,132.463 237.817,132.972 237.067,133.988 C236.314,135.001 235.942,136.31 235.942,137.922 L235.942,152.964 L227.396,152.964 L227.396,126.124 L227.396,126.124 Z" id="MacroConnections_Logo_K_RGB" fill="#0A0A08"></path>
    </g>
</svg>
