<?xml version="1.0" encoding="UTF-8" standalone="no"?>
<!-- Created with Inkscape (http://www.inkscape.org/) -->

<svg
   xmlns:dc="http://purl.org/dc/elements/1.1/"
   xmlns:cc="http://creativecommons.org/ns#"
   xmlns:rdf="http://www.w3.org/1999/02/22-rdf-syntax-ns#"
   xmlns:svg="http://www.w3.org/2000/svg"
   xmlns="http://www.w3.org/2000/svg"
   xmlns:sodipodi="http://sodipodi.sourceforge.net/DTD/sodipodi-0.dtd"
   xmlns:inkscape="http://www.inkscape.org/namespaces/inkscape"
   width="1039.9487"
   height="202.08122"
   viewBox="0 0 1039.9487 202.08123"
   id="svg4149"
   version="1.1"
   inkscape:version="0.91 r13725"
   sodipodi:docname="MC_ML_logo.svg">
  <defs
     id="defs4151" />
  <sodipodi:namedview
     id="base"
     pagecolor="#ffffff"
     bordercolor="#666666"
     borderopacity="1.0"
     inkscape:pageopacity="0.0"
     inkscape:pageshadow="2"
     inkscape:zoom="0.35"
     inkscape:cx="475.221"
     inkscape:cy="-21.235795"
     inkscape:document-units="px"
     inkscape:current-layer="layer1"
     showgrid="false"
     units="px"
     width="500.3622px"
     fit-margin-top="0"
     fit-margin-left="0"
     fit-margin-right="0"
     fit-margin-bottom="0"
     inkscape:window-width="1360"
     inkscape:window-height="744"
     inkscape:window-x="0"
     inkscape:window-y="24"
     inkscape:window-maximized="1" />
  <metadata
     id="metadata4154">
    <rdf:RDF>
      <cc:Work
         rdf:about="">
        <dc:format>image/svg+xml</dc:format>
        <dc:type
           rdf:resource="http://purl.org/dc/dcmitype/StillImage" />
        <dc:title></dc:title>
      </cc:Work>
    </rdf:RDF>
  </metadata>
  <g
     inkscape:label="Layer 1"
     inkscape:groupmode="layer"
     id="layer1"
     transform="translate(-3.1294314,-311.31234)">
    <g
       id="Page-1"
       style="fill:none;fill-rule:evenodd;stroke:none;stroke-width:1"
       transform="translate(672.63614,313.12634)"
       inkscape:export-xdpi="90"
       inkscape:export-ydpi="90">
      <path
         id="MIT_ML_Logo_K_RGB"
         d="m 278.103,191.168 c -1.015,-1.38 -1.52,-3.184 -1.52,-5.423 0,-2.197 0.462,-4.032 1.39,-5.497 0.921,-1.47 2.329,-2.204 4.218,-2.204 1.749,0 3.061,0.706 3.954,2.1 0.89,1.397 1.339,3.245 1.339,5.552 0,2.338 -0.449,4.182 -1.339,5.53 -0.893,1.344 -2.173,2.016 -3.851,2.016 -1.782,0 -3.179,-0.688 -4.191,-2.074 l 0,0 z m 11.291,7.862 c 1.417,-0.645 2.62,-1.584 3.614,-2.804 0.995,-1.22 1.762,-2.714 2.307,-4.482 0.542,-1.76 0.809,-3.76 0.809,-5.999 0,-2.022 -0.267,-3.898 -0.809,-5.633 -0.545,-1.724 -1.312,-3.228 -2.307,-4.499 -0.994,-1.273 -2.197,-2.272 -3.614,-2.988 -1.417,-0.717 -2.996,-1.079 -4.744,-1.079 -1.848,0 -3.373,0.351 -4.577,1.05 -1.212,0.702 -2.232,1.622 -3.072,2.78 l -0.156,0 0,-13.677 -8.539,0 0,37.461 8.172,0 0,-3.406 0.105,0 c 0.839,1.395 1.954,2.454 3.355,3.171 1.397,0.716 2.987,1.075 4.768,1.075 1.711,0 3.271,-0.327 4.688,-0.97 l 0,0 z m -41.126,-5.318 c -0.701,-0.454 -1.052,-1.221 -1.052,-2.308 0,-1.015 0.367,-1.769 1.101,-2.279 0.731,-0.5 1.921,-0.952 3.562,-1.332 0.869,-0.21 1.687,-0.426 2.438,-0.656 0.752,-0.226 1.405,-0.48 1.966,-0.758 l 0,3.193 c 0,1.468 -0.501,2.638 -1.494,3.511 -0.999,0.874 -2.3,1.311 -3.903,1.311 -1.049,0 -1.924,-0.227 -2.618,-0.682 l 0,0 z m 4.79,5.131 c 1.242,-0.659 2.259,-1.549 3.063,-2.671 l 0.109,0 c 0.102,0.7 0.226,1.298 0.364,1.812 0.14,0.504 0.315,0.898 0.526,1.176 l 8.277,0 0,-0.365 c -0.386,-0.248 -0.642,-0.671 -0.759,-1.284 -0.123,-0.612 -0.183,-1.457 -0.183,-2.542 l 0,-13.512 c 0,-1.676 -0.28,-3.162 -0.842,-4.457 -0.556,-1.292 -1.414,-2.36 -2.566,-3.201 -0.977,-0.73 -2.165,-1.275 -3.56,-1.645 -1.397,-0.362 -3.106,-0.551 -5.135,-0.551 -2.025,0 -3.792,0.243 -5.293,0.737 -1.5,0.483 -2.752,1.147 -3.746,1.989 -0.995,0.834 -1.754,1.814 -2.282,2.931 -0.521,1.123 -0.8,2.307 -0.832,3.565 l 7.859,0 c 0.14,-1.122 0.556,-1.978 1.254,-2.567 0.699,-0.593 1.728,-0.892 3.093,-0.892 1.29,0 2.227,0.261 2.799,0.785 0.578,0.525 0.871,1.219 0.871,2.097 0,0.91 -0.512,1.556 -1.524,1.937 -1.012,0.384 -2.777,0.731 -5.292,1.05 -1.395,0.17 -2.712,0.433 -3.954,0.785 -1.239,0.349 -2.329,0.848 -3.273,1.492 -0.942,0.646 -1.69,1.466 -2.229,2.466 -0.541,0.995 -0.815,2.228 -0.815,3.69 0,1.328 0.226,2.499 0.685,3.509 0.456,1.011 1.08,1.873 1.886,2.569 0.805,0.699 1.771,1.222 2.904,1.576 1.139,0.345 2.37,0.521 3.694,0.521 2.033,0 3.66,-0.332 4.901,-1 l 0,0 z m -25.645,0.317 8.641,0 0,-37.461 -8.641,0 0,37.461 z m 125.899,-51.646 c -0.706,-0.453 -1.046,-1.223 -1.046,-2.307 0,-1.007 0.362,-1.767 1.103,-2.275 0.729,-0.504 1.912,-0.947 3.558,-1.342 0.872,-0.202 1.687,-0.421 2.434,-0.647 0.753,-0.23 1.401,-0.482 1.967,-0.761 l 0,3.195 c 0,1.468 -0.503,2.64 -1.498,3.512 -0.99,0.87 -2.297,1.311 -3.895,1.311 -1.057,0 -1.925,-0.227 -2.623,-0.686 l 0,0 z m 4.792,5.142 c 1.24,-0.669 2.263,-1.558 3.063,-2.68 l 0.11,0 c 0.105,0.705 0.224,1.306 0.365,1.814 0.134,0.501 0.32,0.895 0.52,1.179 l 8.28,0 0,-0.367 c -0.386,-0.245 -0.638,-0.678 -0.758,-1.288 -0.124,-0.609 -0.184,-1.457 -0.184,-2.541 l 0,-13.514 c 0,-1.676 -0.28,-3.16 -0.842,-4.455 -0.558,-1.29 -1.406,-2.358 -2.564,-3.193 -0.972,-0.736 -2.173,-1.281 -3.564,-1.654 -1.401,-0.365 -3.11,-0.55 -5.13,-0.55 -2.025,0 -3.792,0.246 -5.291,0.736 -1.508,0.485 -2.754,1.148 -3.75,1.988 -0.994,0.835 -1.752,1.824 -2.279,2.938 -0.523,1.117 -0.8,2.304 -0.839,3.562 l 7.857,0 c 0.14,-1.123 0.56,-1.973 1.26,-2.57 0.696,-0.591 1.729,-0.891 3.091,-0.891 1.294,0 2.225,0.263 2.805,0.788 0.571,0.519 0.861,1.223 0.861,2.098 0,0.904 -0.501,1.554 -1.517,1.934 -1.012,0.384 -2.782,0.738 -5.289,1.046 -1.398,0.18 -2.721,0.439 -3.961,0.791 -1.242,0.347 -2.332,0.844 -3.274,1.493 -0.945,0.643 -1.681,1.465 -2.229,2.457 -0.54,0.998 -0.808,2.229 -0.808,3.695 0,1.33 0.224,2.501 0.678,3.513 0.456,1.013 1.085,1.873 1.892,2.563 0.801,0.7 1.768,1.226 2.907,1.572 1.13,0.353 2.36,0.529 3.693,0.529 2.02,0 3.658,-0.334 4.897,-0.993 l 0,0 z m -25.488,0.313 8.54,0 0,-26.826 -8.54,0 0,26.826 z m 0,-30.55 8.54,0 0,-6.914 -8.54,0 0,6.914 z m -21.333,22.586 c -0.92,-1.364 -1.381,-3.217 -1.381,-5.559 0,-2.262 0.467,-4.111 1.414,-5.526 0.942,-1.416 2.268,-2.12 3.978,-2.12 0.945,0 1.757,0.192 2.44,0.575 0.681,0.386 1.256,0.922 1.729,1.597 0.469,0.681 0.818,1.503 1.05,2.461 0.222,0.964 0.337,2 0.337,3.115 0,2.202 -0.504,4.007 -1.492,5.408 -1,1.39 -2.383,2.091 -4.167,2.091 -1.676,0 -2.977,-0.682 -3.908,-2.042 l 0,0 z m 6.396,7.62 c 1.345,-0.784 2.415,-1.873 3.22,-3.278 l 0.107,0 0,3.622 8.172,0 0,-37.464 -8.536,0 0,13.672 -0.156,0 c -0.807,-1.115 -1.789,-2.032 -2.937,-2.745 -1.155,-0.718 -2.68,-1.083 -4.557,-1.083 -1.752,0 -3.341,0.354 -4.772,1.054 -1.436,0.699 -2.661,1.67 -3.689,2.911 -1.036,1.238 -1.837,2.731 -2.415,4.475 -0.573,1.75 -0.864,3.67 -0.864,5.759 0,2.24 0.291,4.243 0.864,6.007 0.578,1.76 1.393,3.253 2.442,4.475 1.045,1.225 2.281,2.159 3.716,2.803 1.433,0.645 2.998,0.969 4.718,0.969 1.776,0 3.344,-0.394 4.687,-1.177 l 0,0 z m -37.795,-15.954 c 0.28,-1.608 0.855,-2.882 1.73,-3.825 0.876,-0.941 2.129,-1.413 3.772,-1.413 1.396,0 2.548,0.472 3.458,1.413 0.911,0.943 1.449,2.217 1.622,3.825 l -10.582,0 0,0 z m 10.506,16.449 c 1.376,-0.416 2.628,-1.023 3.746,-1.832 1.188,-0.802 2.167,-1.754 2.93,-2.856 0.77,-1.101 1.299,-2.261 1.574,-3.476 l -8.331,0 c -0.383,0.835 -0.942,1.49 -1.676,1.962 -0.737,0.461 -1.657,0.702 -2.774,0.702 -1.787,0 -3.16,-0.519 -4.143,-1.565 -0.977,-1.05 -1.605,-2.485 -1.884,-4.305 l 19.28,0 c 0.038,-2.72 -0.337,-5.206 -1.125,-7.461 -0.786,-2.253 -1.986,-4.113 -3.589,-5.577 -1.153,-1.052 -2.491,-1.87 -4.008,-2.463 -1.52,-0.596 -3.239,-0.9 -5.163,-0.9 -2.059,0 -3.924,0.365 -5.602,1.083 -1.678,0.713 -3.131,1.71 -4.351,2.985 -1.22,1.274 -2.163,2.78 -2.83,4.503 -0.664,1.734 -0.994,3.593 -0.994,5.58 0,2.024 0.33,3.916 0.994,5.658 0.667,1.755 1.61,3.258 2.83,4.54 1.22,1.265 2.726,2.264 4.505,2.976 1.78,0.718 3.773,1.075 5.975,1.075 1.708,0 3.257,-0.203 4.636,-0.629 l 0,0 z m -62.977,-0.151 8.538,0 0,-15.037 c 0,-1.608 0.381,-2.918 1.128,-3.931 0.75,-1.017 1.792,-1.524 3.12,-1.524 1.288,0 2.243,0.397 2.853,1.183 0.609,0.785 0.915,1.914 0.915,3.376 l 0,15.933 8.541,0 0,-15.037 c 0,-1.608 0.367,-2.918 1.101,-3.931 0.734,-1.017 1.784,-1.524 3.144,-1.524 1.296,0 2.24,0.397 2.852,1.183 0.618,0.785 0.918,1.914 0.918,3.376 l 0,15.933 8.544,0 0,-17.451 c 0,-1.5 -0.194,-2.882 -0.577,-4.14 -0.389,-1.256 -0.953,-2.325 -1.706,-3.219 -0.75,-0.887 -1.703,-1.583 -2.852,-2.07 -1.153,-0.485 -2.481,-0.74 -3.981,-0.74 -1.749,0 -3.328,0.384 -4.742,1.134 -1.419,0.747 -2.65,1.947 -3.691,3.589 l -0.111,0 c -0.697,-1.47 -1.684,-2.617 -2.956,-3.461 -1.278,-0.835 -2.806,-1.262 -4.585,-1.262 -1.959,0 -3.594,0.427 -4.9,1.262 -1.309,0.844 -2.383,1.958 -3.226,3.359 l -0.153,0 0,-3.827 -8.174,0 0,26.826 0,0 z m 71.697,-40.483 c 0.782,-0.084 1.368,-0.185 1.754,-0.293 l 0,-6.232 c -0.17,0 -0.435,0.012 -0.786,0.029 -0.342,0.016 -0.712,0.027 -1.098,0.027 -0.912,0 -1.638,-0.179 -2.175,-0.527 -0.545,-0.349 -0.813,-1.053 -0.813,-2.096 l 0,-12.573 4.872,0 0,-5.346 -4.872,0 0,-8.487 -8.33,0 0,8.487 -3.56,0 0,5.346 3.56,0 0,14.41 c 0,1.43 0.21,2.628 0.631,3.586 0.416,0.962 1.007,1.719 1.781,2.277 0.767,0.558 1.665,0.954 2.696,1.18 1.031,0.229 2.175,0.336 3.433,0.336 1.15,0 2.124,-0.036 2.907,-0.124 l 0,0 z m -26.276,-0.185 8.539,0 0,-26.826 -8.539,0 0,26.826 z m 0,-30.542 8.539,0 0,-6.917 -8.539,0 0,6.917 z m -45.421,30.542 8.538,0 0,-15.037 c 0,-1.604 0.381,-2.916 1.128,-3.93 0.75,-1.012 1.792,-1.522 3.12,-1.522 1.288,0 2.243,0.396 2.853,1.182 0.609,0.785 0.915,1.913 0.915,3.38 l 0,15.927 8.541,0 0,-15.037 c 0,-1.604 0.367,-2.916 1.101,-3.93 0.734,-1.012 1.784,-1.522 3.144,-1.522 1.296,0 2.24,0.396 2.852,1.182 0.618,0.785 0.918,1.913 0.918,3.38 l 0,15.927 8.544,0 0,-17.443 c 0,-1.508 -0.194,-2.885 -0.577,-4.142 -0.389,-1.258 -0.953,-2.329 -1.706,-3.225 -0.75,-0.887 -1.703,-1.576 -2.852,-2.07 -1.153,-0.489 -2.481,-0.732 -3.981,-0.732 -1.749,0 -3.328,0.376 -4.742,1.129 -1.419,0.753 -2.65,1.944 -3.691,3.587 l -0.111,0 c -0.697,-1.464 -1.684,-2.618 -2.956,-3.457 -1.278,-0.84 -2.806,-1.259 -4.585,-1.259 -1.959,0 -3.594,0.419 -4.9,1.259 -1.309,0.839 -2.383,1.956 -3.226,3.353 l -0.153,0 0,-3.826 -8.174,0 0,26.826 0,0 z M 0.014,85.459 l 0,113.698 113.684,0 0,-28.425 -85.273,0 0,-85.273 -28.411,0 0,0 z m 170.534,113.698 0,-85.274 -85.275,0 0,-85.272 -85.273,0 0,-28.425 113.698,0 0,85.273 85.272,0 0,113.698 -28.422,0 0,0 z"
         inkscape:connector-curvature="0"
         style="fill:#0a0a08" />
    </g>
    <g
       id="Page-1-3"
       style="fill:none;fill-rule:evenodd;stroke:none;stroke-width:1"
       transform="translate(3.1294314,313.39356)"
       inkscape:export-xdpi="90"
       inkscape:export-ydpi="90">
      <path
         id="MacroConnections_Logo_K_RGB"
         d="m 198.973,113.918 0,-28.447 -113.691,0.024 -0.01,113.72 113.701,0 0,-28.478 -85.272,0 0,-56.819 85.272,0 0,0 z m 0,-85.274 -113.701,0 0,56.831 -56.821,0.021 -0.006,113.711 -28.445,0 0,-142.138 56.869,0 0,-56.846 142.104,0 0,28.421 0,0 z M 504.668,200 c -3.957,0 -7.085,-0.847 -9.386,-2.544 -2.308,-1.695 -3.534,-4.026 -3.671,-6.999 l 8.068,0 c 0.174,1.33 0.684,2.328 1.525,2.989 0.842,0.661 1.97,0.995 3.409,0.995 1.286,0 2.313,-0.221 3.066,-0.677 0.754,-0.459 1.127,-1.122 1.127,-1.998 0,-0.595 -0.198,-1.076 -0.575,-1.44 -0.388,-0.368 -0.894,-0.664 -1.523,-0.892 -0.631,-0.229 -1.349,-0.401 -2.173,-0.524 -0.824,-0.12 -1.676,-0.269 -2.543,-0.443 -1.156,-0.215 -2.313,-0.471 -3.461,-0.764 -1.157,-0.298 -2.196,-0.74 -3.121,-1.335 -0.929,-0.595 -1.671,-1.387 -2.232,-2.385 -0.556,-1.001 -0.84,-2.283 -0.84,-3.857 0,-1.392 0.308,-2.631 0.92,-3.723 0.614,-1.081 1.443,-1.983 2.491,-2.7 1.049,-0.718 2.284,-1.257 3.702,-1.623 1.41,-0.371 2.901,-0.555 4.477,-0.555 3.81,0 6.724,0.769 8.76,2.307 2.027,1.539 3.141,3.643 3.356,6.294 l -7.864,0 c -0.179,-1.225 -0.64,-2.052 -1.394,-2.492 -0.751,-0.434 -1.718,-0.649 -2.907,-0.649 -1.046,0 -1.937,0.194 -2.648,0.598 -0.717,0.404 -1.073,1.023 -1.073,1.862 0,0.495 0.17,0.879 0.518,1.155 0.352,0.28 0.827,0.518 1.42,0.711 0.592,0.19 1.284,0.357 2.074,0.49 0.78,0.144 1.596,0.284 2.437,0.423 1.186,0.21 2.383,0.463 3.588,0.758 1.205,0.299 2.312,0.765 3.303,1.391 0.994,0.626 1.81,1.483 2.436,2.547 0.63,1.065 0.95,2.456 0.95,4.169 0,1.462 -0.313,2.761 -0.919,3.872 -0.61,1.124 -1.457,2.053 -2.544,2.787 -1.084,0.731 -2.38,1.292 -3.88,1.677 -1.509,0.384 -3.137,0.575 -4.873,0.575 l 0,0 z m -41.324,-27.687 8.23,0 0,3.673 0.168,0 c 1.005,-1.47 2.172,-2.576 3.482,-3.334 1.314,-0.747 2.911,-1.127 4.796,-1.127 1.466,0 2.782,0.255 3.936,0.765 1.146,0.509 2.131,1.205 2.934,2.094 0.801,0.891 1.413,1.96 1.834,3.199 0.424,1.245 0.629,2.617 0.629,4.117 l 0,17.465 -8.544,0 0,-15.732 c 0,-1.434 -0.354,-2.588 -1.047,-3.458 -0.706,-0.879 -1.755,-1.315 -3.147,-1.315 -1.433,0 -2.581,0.525 -3.438,1.571 -0.855,1.054 -1.287,2.413 -1.287,4.09 l 0,14.844 -8.546,0 0,-26.852 0,0 z m -16.932,21.603 c 1.889,0 3.306,-0.739 4.272,-2.227 0.961,-1.485 1.442,-3.452 1.442,-5.9 0,-2.446 -0.481,-4.423 -1.442,-5.924 -0.966,-1.499 -2.383,-2.253 -4.272,-2.253 -1.891,0 -3.31,0.754 -4.251,2.253 -0.943,1.501 -1.409,3.478 -1.409,5.924 0,2.448 0.466,4.415 1.409,5.9 0.941,1.488 2.36,2.227 4.251,2.227 l 0,0 z M 446.46,200 c -2.167,0 -4.13,-0.362 -5.899,-1.077 -1.764,-0.716 -3.273,-1.712 -4.532,-2.989 -1.261,-1.272 -2.229,-2.772 -2.912,-4.506 -0.683,-1.733 -1.026,-3.61 -1.026,-5.639 0,-2.022 0.343,-3.903 1.026,-5.635 0.683,-1.732 1.651,-3.236 2.912,-4.511 1.259,-1.274 2.768,-2.273 4.532,-2.991 1.769,-0.707 3.732,-1.07 5.899,-1.07 2.175,0 4.136,0.363 5.903,1.07 1.766,0.718 3.267,1.717 4.506,2.991 1.241,1.275 2.201,2.779 2.883,4.511 0.679,1.732 1.023,3.613 1.023,5.635 0,2.029 -0.344,3.906 -1.023,5.639 -0.682,1.734 -1.642,3.234 -2.883,4.506 -1.239,1.277 -2.74,2.273 -4.506,2.989 -1.767,0.715 -3.728,1.077 -5.903,1.077 l 0,0 z m -25.638,-0.835 8.544,0 0,-26.852 -8.544,0 0,26.852 z m 0,-30.571 8.544,0 0,-6.925 -8.544,0 0,6.925 z m -7.915,30.88 c -1.261,0 -2.411,-0.111 -3.439,-0.336 -1.029,-0.23 -1.93,-0.62 -2.701,-1.179 -0.769,-0.564 -1.362,-1.325 -1.779,-2.283 -0.421,-0.964 -0.626,-2.16 -0.626,-3.597 l 0,-14.417 -3.571,0 0,-5.349 3.571,0 0,-8.492 8.334,0 0,8.492 4.875,0 0,5.349 -4.875,0 0,12.589 c 0,1.049 0.272,1.744 0.812,2.091 0.542,0.349 1.265,0.524 2.176,0.524 0.385,0 0.753,-0.004 1.103,-0.023 0.348,-0.02 0.608,-0.024 0.784,-0.024 l 0,6.236 c -0.384,0.11 -0.975,0.203 -1.761,0.293 -0.782,0.085 -1.755,0.126 -2.903,0.126 l 0,0 z M 387.103,200 c -2.159,0 -4.122,-0.362 -5.871,-1.077 -1.75,-0.716 -3.244,-1.712 -4.481,-2.989 -1.24,-1.272 -2.203,-2.772 -2.886,-4.506 -0.679,-1.733 -1.018,-3.61 -1.018,-5.639 0,-2.022 0.327,-3.903 0.996,-5.635 0.666,-1.732 1.604,-3.236 2.826,-4.511 1.225,-1.274 2.704,-2.273 4.434,-2.991 1.729,-0.707 3.662,-1.07 5.794,-1.07 1.817,0 3.469,0.252 4.953,0.759 1.488,0.508 2.775,1.216 3.852,2.126 1.09,0.904 1.959,1.989 2.622,3.252 0.668,1.252 1.11,2.636 1.315,4.141 l -8.232,0 c -0.276,-1.225 -0.778,-2.198 -1.489,-2.911 -0.72,-0.716 -1.694,-1.081 -2.918,-1.081 -1.853,0 -3.232,0.713 -4.139,2.129 -0.91,1.415 -1.362,3.346 -1.362,5.792 0,2.41 0.452,4.318 1.362,5.717 0.907,1.394 2.286,2.1 4.139,2.1 2.729,0 4.283,-1.54 4.669,-4.614 l 8.179,0 c -0.07,1.536 -0.41,2.971 -1.021,4.322 -0.611,1.348 -1.468,2.514 -2.568,3.512 -1.102,1.001 -2.431,1.778 -3.988,2.339 -1.552,0.55 -3.271,0.835 -5.168,0.835 l 0,0 z m -24.59,-17.15 c -0.175,-1.601 -0.713,-2.875 -1.624,-3.824 -0.908,-0.946 -2.063,-1.414 -3.462,-1.414 -1.637,0 -2.897,0.468 -3.775,1.414 -0.872,0.949 -1.451,2.223 -1.729,3.824 l 10.59,0 0,0 z m -4.712,17.096 c -2.207,0 -4.2,-0.354 -5.984,-1.074 -1.78,-0.711 -3.282,-1.711 -4.503,-2.99 -1.229,-1.277 -2.172,-2.787 -2.836,-4.535 -0.664,-1.741 -0.996,-3.634 -0.996,-5.664 0,-1.99 0.332,-3.851 0.996,-5.581 0.664,-1.729 1.607,-3.233 2.836,-4.504 1.221,-1.284 2.67,-2.279 4.35,-2.996 1.674,-0.712 3.546,-1.077 5.608,-1.077 1.926,0 3.646,0.303 5.164,0.894 1.521,0.598 2.862,1.413 4.014,2.463 1.603,1.471 2.8,3.331 3.591,5.589 0.787,2.251 1.158,4.742 1.13,7.467 l -19.296,0 c 0.274,1.818 0.905,3.254 1.882,4.303 0.978,1.045 2.364,1.57 4.143,1.57 1.118,0 2.048,-0.233 2.779,-0.709 0.738,-0.474 1.294,-1.126 1.678,-1.96 l 8.338,0 c -0.278,1.219 -0.804,2.383 -1.572,3.481 -0.768,1.101 -1.748,2.056 -2.937,2.861 -1.118,0.805 -2.369,1.416 -3.75,1.837 -1.378,0.415 -2.927,0.625 -4.635,0.625 l 0,0 z m -42.582,-27.633 8.234,0 0,3.673 0.159,0 c 1.011,-1.47 2.174,-2.576 3.485,-3.334 1.312,-0.747 2.914,-1.127 4.799,-1.127 1.464,0 2.78,0.255 3.934,0.765 1.149,0.509 2.129,1.205 2.934,2.094 0.805,0.891 1.417,1.96 1.835,3.199 0.424,1.245 0.627,2.617 0.627,4.117 l 0,17.465 -8.546,0 0,-15.732 c 0,-1.434 -0.349,-2.588 -1.05,-3.458 -0.697,-0.879 -1.745,-1.315 -3.144,-1.315 -1.432,0 -2.575,0.525 -3.435,1.571 -0.859,1.054 -1.286,2.413 -1.286,4.09 l 0,14.844 -8.546,0 0,-26.852 0,0 z m -29.258,0 8.229,0 0,3.673 0.164,0 c 1.007,-1.47 2.171,-2.576 3.486,-3.334 1.307,-0.747 2.908,-1.127 4.795,-1.127 1.468,0 2.782,0.255 3.935,0.765 1.156,0.509 2.13,1.205 2.932,2.094 0.808,0.891 1.415,1.96 1.837,3.199 0.419,1.245 0.632,2.617 0.632,4.117 l 0,17.465 -8.549,0 0,-15.732 c 0,-1.434 -0.349,-2.588 -1.048,-3.458 -0.696,-0.879 -1.751,-1.315 -3.145,-1.315 -1.435,0 -2.577,0.525 -3.437,1.571 -0.858,1.054 -1.282,2.413 -1.282,4.09 l 0,14.844 -8.549,0 0,-26.852 0,0 z m -16.78,21.603 c 1.889,0 3.317,-0.739 4.275,-2.227 0.961,-1.485 1.441,-3.452 1.441,-5.9 0,-2.446 -0.48,-4.423 -1.441,-5.924 -0.958,-1.499 -2.386,-2.253 -4.275,-2.253 -1.888,0 -3.299,0.754 -4.246,2.253 -0.945,1.501 -1.418,3.478 -1.418,5.924 0,2.448 0.473,4.415 1.418,5.9 0.947,1.488 2.358,2.227 4.246,2.227 l 0,0 z m 0.053,6.084 c -2.166,0 -4.133,-0.362 -5.9,-1.077 -1.763,-0.716 -3.276,-1.712 -4.534,-2.989 -1.26,-1.272 -2.224,-2.772 -2.91,-4.506 -0.684,-1.733 -1.02,-3.61 -1.02,-5.639 0,-2.022 0.336,-3.903 1.02,-5.635 0.686,-1.732 1.65,-3.236 2.91,-4.511 1.258,-1.274 2.771,-2.273 4.534,-2.991 1.767,-0.707 3.734,-1.07 5.9,-1.07 2.172,0 4.133,0.363 5.901,1.07 1.767,0.718 3.268,1.717 4.507,2.991 1.238,1.275 2.208,2.779 2.889,4.511 0.677,1.732 1.017,3.613 1.017,5.635 0,2.029 -0.34,3.906 -1.017,5.639 -0.681,1.734 -1.651,3.234 -2.889,4.506 -1.239,1.277 -2.74,2.273 -4.507,2.989 -1.768,0.715 -3.729,1.077 -5.901,1.077 l 0,0 z m -28.786,0 c -2.167,0 -4.124,-0.362 -5.873,-1.077 -1.751,-0.716 -3.242,-1.712 -4.483,-2.989 -1.242,-1.272 -2.2,-2.772 -2.886,-4.506 -0.677,-1.733 -1.017,-3.61 -1.017,-5.639 0,-2.022 0.33,-3.903 0.997,-5.635 0.663,-1.732 1.606,-3.236 2.827,-4.511 1.22,-1.274 2.704,-2.273 4.435,-2.991 1.729,-0.707 3.657,-1.07 5.791,-1.07 1.813,0 3.466,0.252 4.957,0.759 1.486,0.508 2.767,1.216 3.854,2.126 1.082,0.904 1.955,1.989 2.624,3.252 0.666,1.252 1.1,2.636 1.304,4.141 l -8.23,0 c -0.279,-1.225 -0.782,-2.198 -1.492,-2.911 -0.718,-0.716 -1.69,-1.081 -2.912,-1.081 -1.855,0 -3.239,0.713 -4.141,2.129 -0.911,1.415 -1.367,3.346 -1.367,5.792 0,2.41 0.456,4.318 1.367,5.717 0.902,1.394 2.286,2.1 4.141,2.1 2.723,0 4.277,-1.54 4.666,-4.614 l 8.18,0 c -0.068,1.536 -0.411,2.971 -1.026,4.322 -0.606,1.348 -1.465,2.514 -2.567,3.512 -1.1,1.001 -2.424,1.778 -3.981,2.339 -1.555,0.55 -3.277,0.835 -5.168,0.835 l 0,0 z m 121.173,-52.276 c 1.888,0 3.313,-0.743 4.275,-2.227 0.961,-1.485 1.44,-3.452 1.44,-5.899 0,-2.446 -0.479,-4.425 -1.44,-5.926 -0.962,-1.504 -2.387,-2.253 -4.275,-2.253 -1.887,0 -3.302,0.749 -4.243,2.253 -0.948,1.501 -1.421,3.48 -1.421,5.926 0,2.447 0.473,4.414 1.421,5.899 0.941,1.484 2.356,2.227 4.243,2.227 l 0,0 z m 0.056,6.083 c -2.168,0 -4.137,-0.357 -5.898,-1.078 -1.769,-0.71 -3.281,-1.71 -4.535,-2.984 -1.262,-1.274 -2.229,-2.78 -2.92,-4.512 -0.674,-1.73 -1.017,-3.609 -1.017,-5.635 0,-2.027 0.343,-3.908 1.017,-5.635 0.691,-1.733 1.658,-3.233 2.92,-4.514 1.254,-1.268 2.766,-2.269 4.535,-2.986 1.761,-0.716 3.73,-1.078 5.898,-1.078 2.162,0 4.131,0.362 5.895,1.078 1.767,0.717 3.271,1.718 4.514,2.986 1.241,1.281 2.199,2.781 2.882,4.514 0.678,1.727 1.02,3.608 1.02,5.635 0,2.026 -0.342,3.905 -1.02,5.635 -0.683,1.732 -1.641,3.238 -2.882,4.512 -1.243,1.274 -2.747,2.274 -4.514,2.984 -1.764,0.721 -3.733,1.078 -5.895,1.078 l 0,0 z m -32.564,-27.683 8.181,0 0,4.196 0.152,0 c 0.95,-1.612 1.998,-2.782 3.149,-3.519 1.151,-0.731 2.555,-1.096 4.197,-1.096 0.802,0 1.36,0.067 1.672,0.208 l 0,7.34 -0.204,0 c -2.622,-0.383 -4.715,0.067 -6.265,1.333 -1.554,1.28 -2.332,3.386 -2.332,6.326 l 0,12.052 -8.55,0 0,-26.84 0,0 z m -15.465,27.683 c -2.17,0 -4.126,-0.357 -5.873,-1.078 -1.752,-0.71 -3.242,-1.71 -4.483,-2.984 -1.243,-1.274 -2.202,-2.78 -2.887,-4.512 -0.68,-1.73 -1.02,-3.609 -1.02,-5.635 0,-2.027 0.335,-3.908 0.995,-5.635 0.661,-1.733 1.609,-3.233 2.829,-4.514 1.226,-1.268 2.703,-2.269 4.432,-2.986 1.731,-0.716 3.665,-1.078 5.797,-1.078 1.82,0 3.464,0.254 4.952,0.767 1.49,0.501 2.776,1.212 3.855,2.122 1.083,0.906 1.961,1.99 2.627,3.251 0.66,1.258 1.097,2.637 1.305,4.138 l -8.229,0 c -0.282,-1.22 -0.776,-2.189 -1.493,-2.909 -0.718,-0.715 -1.691,-1.076 -2.917,-1.076 -1.851,0 -3.228,0.708 -4.14,2.126 -0.906,1.416 -1.364,3.348 -1.364,5.794 0,2.413 0.458,4.321 1.364,5.721 0.912,1.391 2.289,2.097 4.14,2.097 2.729,0 4.285,-1.542 4.671,-4.62 l 8.176,0 c -0.064,1.542 -0.411,2.981 -1.02,4.325 -0.611,1.35 -1.469,2.52 -2.566,3.519 -1.102,0.995 -2.434,1.772 -3.987,2.324 -1.556,0.564 -3.278,0.843 -5.164,0.843 l 0,0 z m -30.205,-5.608 c 1.605,0 2.912,-0.435 3.906,-1.315 0.998,-0.871 1.494,-2.039 1.494,-3.514 l 0,-3.193 c -0.558,0.272 -1.212,0.532 -1.963,0.758 -0.75,0.227 -1.564,0.442 -2.441,0.656 -1.64,0.389 -2.829,0.83 -3.566,1.341 -0.73,0.501 -1.101,1.263 -1.101,2.281 0,1.076 0.352,1.846 1.052,2.305 0.699,0.45 1.57,0.681 2.619,0.681 l 0,0 z m -2.726,5.452 c -1.33,0 -2.56,-0.174 -3.698,-0.521 -1.131,-0.352 -2.105,-0.879 -2.91,-1.573 -0.799,-0.704 -1.435,-1.562 -1.887,-2.574 -0.451,-1.015 -0.679,-2.18 -0.679,-3.513 0,-1.466 0.27,-2.702 0.808,-3.693 0.547,-0.998 1.287,-1.823 2.233,-2.464 0.942,-0.65 2.034,-1.151 3.277,-1.5 1.239,-0.348 2.563,-0.607 3.959,-0.786 2.51,-0.316 4.28,-0.657 5.298,-1.048 1.008,-0.382 1.52,-1.031 1.52,-1.937 0,-0.875 -0.291,-1.579 -0.868,-2.104 -0.574,-0.519 -1.51,-0.78 -2.803,-0.78 -1.367,0 -2.396,0.296 -3.096,0.89 -0.697,0.589 -1.118,1.448 -1.261,2.569 l -7.858,0 c 0.032,-1.256 0.308,-2.449 0.837,-3.563 0.52,-1.117 1.281,-2.101 2.279,-2.944 0.995,-0.835 2.244,-1.499 3.745,-1.986 1.508,-0.493 3.273,-0.739 5.302,-0.739 2.023,0 3.736,0.192 5.137,0.557 1.396,0.365 2.586,0.917 3.564,1.651 1.158,0.836 2.012,1.901 2.568,3.195 0.559,1.294 0.84,2.779 0.84,4.46 l 0,13.527 c 0,1.087 0.064,1.933 0.186,2.54 0.118,0.61 0.372,1.044 0.757,1.283 l 0,0.366 -8.283,0 c -0.212,-0.272 -0.388,-0.668 -0.524,-1.175 -0.141,-0.505 -0.264,-1.112 -0.366,-1.81 l -0.104,0 c -0.806,1.123 -1.829,2.016 -3.072,2.677 -1.241,0.662 -2.873,0.995 -4.901,0.995 l 0,0 z m -53.321,-27.527 8.175,0 0,3.829 0.159,0 c 0.838,-1.403 1.913,-2.519 3.225,-3.361 1.31,-0.833 2.941,-1.257 4.901,-1.257 1.783,0 3.317,0.424 4.588,1.257 1.276,0.842 2.265,1.996 2.961,3.466 l 0.106,0 c 1.05,-1.645 2.284,-2.841 3.702,-3.595 1.409,-0.751 2.995,-1.128 4.744,-1.128 1.5,0 2.83,0.244 3.981,0.735 1.151,0.491 2.109,1.178 2.863,2.071 0.75,0.895 1.314,1.967 1.702,3.223 0.381,1.258 0.577,2.642 0.577,4.143 l 0,17.457 -8.548,0 0,-15.937 c 0,-1.466 -0.308,-2.596 -0.919,-3.377 -0.611,-0.789 -1.563,-1.187 -2.858,-1.187 -1.357,0 -2.409,0.509 -3.147,1.525 -0.733,1.013 -1.102,2.322 -1.102,3.934 l 0,15.042 -8.542,0 0,-15.937 c 0,-1.466 -0.308,-2.596 -0.921,-3.377 -0.61,-0.789 -1.564,-1.187 -2.855,-1.187 -1.332,0 -2.371,0.509 -3.121,1.525 -0.753,1.013 -1.125,2.322 -1.125,3.934 l 0,15.042 -8.546,0 0,-26.84 0,0 z"
         inkscape:connector-curvature="0"
         style="fill:#0a0a08" />
    </g>
  </g>
</svg>
