<?xml version="1.0" encoding="utf-8"?>
<!DOCTYPE svg PUBLIC "-//W3C//DTD SVG 1.1//EN" "http://www.w3.org/Graphics/SVG/1.1/DTD/svg11.dtd">
<svg width="371px" height="200px" viewBox="0 0 371 200" version="1.1" xmlns="http://www.w3.org/2000/svg" xmlns:xlink="http://www.w3.org/1999/xlink">
    <defs></defs>
    <g id="Page-1" stroke="none" stroke-width="1" fill="none" fill-rule="evenodd">
        <path d="M278.103,191.168 C277.088,189.788 276.583,187.984 276.583,185.745 C276.583,183.548 277.045,181.713 277.973,180.248 C278.894,178.778 280.302,178.044 282.191,178.044 C283.94,178.044 285.252,178.75 286.145,180.144 C287.035,181.541 287.484,183.389 287.484,185.696 C287.484,188.034 287.035,189.878 286.145,191.226 C285.252,192.57 283.972,193.242 282.294,193.242 C280.512,193.242 279.115,192.554 278.103,191.168 L278.103,191.168 Z M289.394,199.03 C290.811,198.385 292.014,197.446 293.008,196.226 C294.003,195.006 294.77,193.512 295.315,191.744 C295.857,189.984 296.124,187.984 296.124,185.745 C296.124,183.723 295.857,181.847 295.315,180.112 C294.77,178.388 294.003,176.884 293.008,175.613 C292.014,174.34 290.811,173.341 289.394,172.625 C287.977,171.908 286.398,171.546 284.65,171.546 C282.802,171.546 281.277,171.897 280.073,172.596 C278.861,173.298 277.841,174.218 277.001,175.376 L276.845,175.376 L276.845,161.699 L268.306,161.699 L268.306,199.16 L276.478,199.16 L276.478,195.754 L276.583,195.754 C277.422,197.149 278.537,198.208 279.938,198.925 C281.335,199.641 282.925,200 284.706,200 C286.417,200 287.977,199.673 289.394,199.03 L289.394,199.03 Z M248.268,193.712 C247.567,193.258 247.216,192.491 247.216,191.404 C247.216,190.389 247.583,189.635 248.317,189.125 C249.048,188.625 250.238,188.173 251.879,187.793 C252.748,187.583 253.566,187.367 254.317,187.137 C255.069,186.911 255.722,186.657 256.283,186.379 L256.283,189.572 C256.283,191.04 255.782,192.21 254.789,193.083 C253.79,193.957 252.489,194.394 250.886,194.394 C249.837,194.394 248.962,194.167 248.268,193.712 L248.268,193.712 Z M253.058,198.843 C254.3,198.184 255.317,197.294 256.121,196.172 L256.23,196.172 C256.332,196.872 256.456,197.47 256.594,197.984 C256.734,198.488 256.909,198.882 257.12,199.16 L265.397,199.16 L265.397,198.795 C265.011,198.547 264.755,198.124 264.638,197.511 C264.515,196.899 264.455,196.054 264.455,194.969 L264.455,181.457 C264.455,179.781 264.175,178.295 263.613,177 C263.057,175.708 262.199,174.64 261.047,173.799 C260.07,173.069 258.882,172.524 257.487,172.154 C256.09,171.792 254.381,171.603 252.352,171.603 C250.327,171.603 248.56,171.846 247.059,172.34 C245.559,172.823 244.307,173.487 243.313,174.329 C242.318,175.163 241.559,176.143 241.031,177.26 C240.51,178.383 240.231,179.567 240.199,180.825 L248.058,180.825 C248.198,179.703 248.614,178.847 249.312,178.258 C250.011,177.665 251.04,177.366 252.405,177.366 C253.695,177.366 254.632,177.627 255.204,178.151 C255.782,178.676 256.075,179.37 256.075,180.248 C256.075,181.158 255.563,181.804 254.551,182.185 C253.539,182.569 251.774,182.916 249.259,183.235 C247.864,183.405 246.547,183.668 245.305,184.02 C244.066,184.369 242.976,184.868 242.032,185.512 C241.09,186.158 240.342,186.978 239.803,187.978 C239.262,188.973 238.988,190.206 238.988,191.668 C238.988,192.996 239.214,194.167 239.673,195.177 C240.129,196.188 240.753,197.05 241.559,197.746 C242.364,198.445 243.33,198.968 244.463,199.322 C245.602,199.667 246.833,199.843 248.157,199.843 C250.19,199.843 251.817,199.511 253.058,198.843 L253.058,198.843 Z M227.413,199.16 L236.054,199.16 L236.054,161.699 L227.413,161.699 L227.413,199.16 Z M353.312,147.514 C352.606,147.061 352.266,146.291 352.266,145.207 C352.266,144.2 352.628,143.44 353.369,142.932 C354.098,142.428 355.281,141.985 356.927,141.59 C357.799,141.388 358.614,141.169 359.361,140.943 C360.114,140.713 360.762,140.461 361.328,140.182 L361.328,143.377 C361.328,144.845 360.825,146.017 359.83,146.889 C358.84,147.759 357.533,148.2 355.935,148.2 C354.878,148.2 354.01,147.973 353.312,147.514 L353.312,147.514 Z M358.104,152.656 C359.344,151.987 360.367,151.098 361.167,149.976 L361.277,149.976 C361.382,150.681 361.501,151.282 361.642,151.79 C361.776,152.291 361.962,152.685 362.162,152.969 L370.442,152.969 L370.442,152.602 C370.056,152.357 369.804,151.924 369.684,151.314 C369.56,150.705 369.5,149.857 369.5,148.773 L369.5,135.259 C369.5,133.583 369.22,132.099 368.658,130.804 C368.1,129.514 367.252,128.446 366.094,127.611 C365.122,126.875 363.921,126.33 362.53,125.957 C361.129,125.592 359.42,125.407 357.4,125.407 C355.375,125.407 353.608,125.653 352.109,126.143 C350.601,126.628 349.355,127.291 348.359,128.131 C347.365,128.966 346.607,129.955 346.08,131.069 C345.557,132.186 345.28,133.373 345.241,134.631 L353.098,134.631 C353.238,133.508 353.658,132.658 354.358,132.061 C355.054,131.47 356.087,131.17 357.449,131.17 C358.743,131.17 359.674,131.433 360.254,131.958 C360.825,132.477 361.115,133.181 361.115,134.056 C361.115,134.96 360.614,135.61 359.598,135.99 C358.586,136.374 356.816,136.728 354.309,137.036 C352.911,137.216 351.588,137.475 350.348,137.827 C349.106,138.174 348.016,138.671 347.074,139.32 C346.129,139.963 345.393,140.785 344.845,141.777 C344.305,142.775 344.037,144.006 344.037,145.472 C344.037,146.802 344.261,147.973 344.715,148.985 C345.171,149.998 345.8,150.858 346.607,151.548 C347.408,152.248 348.375,152.774 349.514,153.12 C350.644,153.473 351.874,153.649 353.207,153.649 C355.227,153.649 356.865,153.315 358.104,152.656 L358.104,152.656 Z M332.616,152.969 L341.156,152.969 L341.156,126.143 L332.616,126.143 L332.616,152.969 Z M332.616,122.419 L341.156,122.419 L341.156,115.505 L332.616,115.505 L332.616,122.419 Z M311.283,145.005 C310.363,143.641 309.902,141.788 309.902,139.446 C309.902,137.184 310.369,135.335 311.316,133.92 C312.258,132.504 313.584,131.8 315.294,131.8 C316.239,131.8 317.051,131.992 317.734,132.375 C318.415,132.761 318.99,133.297 319.463,133.972 C319.932,134.653 320.281,135.475 320.513,136.433 C320.735,137.397 320.85,138.433 320.85,139.548 C320.85,141.75 320.346,143.555 319.358,144.956 C318.358,146.346 316.975,147.047 315.191,147.047 C313.515,147.047 312.214,146.365 311.283,145.005 L311.283,145.005 Z M317.679,152.625 C319.024,151.841 320.094,150.752 320.899,149.347 L321.006,149.347 L321.006,152.969 L329.178,152.969 L329.178,115.505 L320.642,115.505 L320.642,129.177 L320.486,129.177 C319.679,128.062 318.697,127.145 317.549,126.432 C316.394,125.714 314.869,125.349 312.992,125.349 C311.24,125.349 309.651,125.703 308.22,126.403 C306.784,127.102 305.559,128.073 304.531,129.314 C303.495,130.552 302.694,132.045 302.116,133.789 C301.543,135.539 301.252,137.459 301.252,139.548 C301.252,141.788 301.543,143.791 302.116,145.555 C302.694,147.315 303.509,148.808 304.558,150.03 C305.603,151.255 306.839,152.189 308.274,152.833 C309.707,153.478 311.272,153.802 312.992,153.802 C314.768,153.802 316.336,153.408 317.679,152.625 L317.679,152.625 Z M279.884,136.671 C280.164,135.063 280.739,133.789 281.614,132.846 C282.49,131.905 283.743,131.433 285.386,131.433 C286.782,131.433 287.934,131.905 288.844,132.846 C289.755,133.789 290.293,135.063 290.466,136.671 L279.884,136.671 L279.884,136.671 Z M290.39,153.12 C291.766,152.704 293.018,152.097 294.136,151.288 C295.324,150.486 296.303,149.534 297.066,148.432 C297.836,147.331 298.365,146.171 298.64,144.956 L290.309,144.956 C289.926,145.791 289.367,146.446 288.633,146.918 C287.896,147.379 286.976,147.62 285.859,147.62 C284.072,147.62 282.699,147.101 281.716,146.055 C280.739,145.005 280.111,143.57 279.832,141.75 L299.112,141.75 C299.15,139.03 298.775,136.544 297.987,134.289 C297.201,132.036 296.001,130.176 294.398,128.712 C293.245,127.66 291.907,126.842 290.39,126.249 C288.87,125.653 287.151,125.349 285.227,125.349 C283.168,125.349 281.303,125.714 279.625,126.432 C277.947,127.145 276.494,128.142 275.274,129.417 C274.054,130.691 273.111,132.197 272.444,133.92 C271.78,135.654 271.45,137.513 271.45,139.5 C271.45,141.524 271.78,143.416 272.444,145.158 C273.111,146.913 274.054,148.416 275.274,149.698 C276.494,150.963 278,151.962 279.779,152.674 C281.559,153.392 283.552,153.749 285.754,153.749 C287.462,153.749 289.011,153.546 290.39,153.12 L290.39,153.12 Z M227.413,152.969 L235.951,152.969 L235.951,137.932 C235.951,136.324 236.332,135.014 237.079,134.001 C237.829,132.984 238.871,132.477 240.199,132.477 C241.487,132.477 242.442,132.874 243.052,133.66 C243.661,134.445 243.967,135.574 243.967,137.036 L243.967,152.969 L252.508,152.969 L252.508,137.932 C252.508,136.324 252.875,135.014 253.609,134.001 C254.343,132.984 255.393,132.477 256.753,132.477 C258.049,132.477 258.993,132.874 259.605,133.66 C260.223,134.445 260.523,135.574 260.523,137.036 L260.523,152.969 L269.067,152.969 L269.067,135.518 C269.067,134.018 268.873,132.636 268.49,131.378 C268.101,130.122 267.537,129.053 266.784,128.159 C266.034,127.272 265.081,126.576 263.932,126.089 C262.779,125.604 261.451,125.349 259.951,125.349 C258.202,125.349 256.623,125.733 255.209,126.483 C253.79,127.23 252.559,128.43 251.518,130.072 L251.407,130.072 C250.71,128.602 249.723,127.455 248.451,126.611 C247.173,125.776 245.645,125.349 243.866,125.349 C241.907,125.349 240.272,125.776 238.966,126.611 C237.657,127.455 236.583,128.569 235.74,129.97 L235.587,129.97 L235.587,126.143 L227.413,126.143 L227.413,152.969 L227.413,152.969 Z M299.11,112.486 C299.892,112.402 300.478,112.301 300.864,112.193 L300.864,105.961 C300.694,105.961 300.429,105.973 300.078,105.99 C299.736,106.006 299.366,106.017 298.98,106.017 C298.068,106.017 297.342,105.838 296.805,105.49 C296.26,105.141 295.992,104.437 295.992,103.394 L295.992,90.821 L300.864,90.821 L300.864,85.475 L295.992,85.475 L295.992,76.988 L287.662,76.988 L287.662,85.475 L284.102,85.475 L284.102,90.821 L287.662,90.821 L287.662,105.231 C287.662,106.661 287.872,107.859 288.293,108.817 C288.709,109.779 289.3,110.536 290.074,111.094 C290.841,111.652 291.739,112.048 292.77,112.274 C293.801,112.503 294.945,112.61 296.203,112.61 C297.353,112.61 298.327,112.574 299.11,112.486 L299.11,112.486 Z M272.834,112.301 L281.373,112.301 L281.373,85.475 L272.834,85.475 L272.834,112.301 Z M272.834,81.759 L281.373,81.759 L281.373,74.842 L272.834,74.842 L272.834,81.759 Z M227.413,112.301 L235.951,112.301 L235.951,97.264 C235.951,95.66 236.332,94.348 237.079,93.334 C237.829,92.322 238.871,91.812 240.199,91.812 C241.487,91.812 242.442,92.208 243.052,92.994 C243.661,93.779 243.967,94.907 243.967,96.374 L243.967,112.301 L252.508,112.301 L252.508,97.264 C252.508,95.66 252.875,94.348 253.609,93.334 C254.343,92.322 255.393,91.812 256.753,91.812 C258.049,91.812 258.993,92.208 259.605,92.994 C260.223,93.779 260.523,94.907 260.523,96.374 L260.523,112.301 L269.067,112.301 L269.067,94.858 C269.067,93.35 268.873,91.973 268.49,90.716 C268.101,89.458 267.537,88.387 266.784,87.491 C266.034,86.604 265.081,85.915 263.932,85.421 C262.779,84.932 261.451,84.689 259.951,84.689 C258.202,84.689 256.623,85.065 255.209,85.818 C253.79,86.571 252.559,87.762 251.518,89.405 L251.407,89.405 C250.71,87.941 249.723,86.787 248.451,85.948 C247.173,85.108 245.645,84.689 243.866,84.689 C241.907,84.689 240.272,85.108 238.966,85.948 C237.657,86.787 236.583,87.904 235.74,89.301 L235.587,89.301 L235.587,85.475 L227.413,85.475 L227.413,112.301 L227.413,112.301 Z M0.014,85.459 L0.014,199.157 L113.698,199.157 L113.698,170.732 L28.425,170.732 L28.425,85.459 L0.014,85.459 L0.014,85.459 Z M170.548,199.157 L170.548,113.883 L85.273,113.883 L85.273,28.611 L0,28.611 L0,0.186 L113.698,0.186 L113.698,85.459 L198.97,85.459 L198.97,199.157 L170.548,199.157 L170.548,199.157 Z" id="MIT_ML_Logo_K_RGB" fill="#0A0A08"></path>
    </g>
</svg>
