<?xml version="1.0" encoding="UTF-8" standalone="no"?>
<svg width="27px" height="27px" viewBox="0 0 27 27" version="1.1" xmlns="http://www.w3.org/2000/svg" xmlns:xlink="http://www.w3.org/1999/xlink" xmlns:sketch="http://www.bohemiancoding.com/sketch/ns">
    <!-- Generator: Sketch 3.3.2 (12043) - http://www.bohemiancoding.com/sketch -->
    <title>Shape + Shape + Shape Copy</title>
    <desc>Created with Sketch.</desc>
    <defs></defs>
    <g id="Page-1" stroke="none" stroke-width="1" fill="none" fill-rule="evenodd" sketch:type="MSPage">
        <g id="piechart" sketch:type="MSLayerGroup" transform="translate(-4.000000, 0.000000)" stroke="#5D5D5D">
            <g id="Shape-+-Shape-+-Shape-Copy-2" transform="translate(6.000000, 3.000000)" sketch:type="MSShapeGroup">
                <path d="M22.1844752,11.8538416 L14.6356436,11.8538416 C14.3043366,11.8538416 14.0364158,12.1215446 14.0364158,12.452198 C14.0364158,12.6210099 14.1067723,12.7719604 14.2189505,12.8810891 L19.5355446,18.1983366 L19.5388119,18.1976832 C19.647505,18.3144356 19.8017228,18.388495 19.9742376,18.388495 C20.1809505,18.388495 20.3632673,18.2832871 20.4710891,18.1234059 C21.7775842,16.607802 22.6181584,14.6792079 22.7717228,12.5602376 C22.7784752,12.5247327 22.7834851,12.4887921 22.7834851,12.452198 C22.7821782,12.1215446 22.5151287,11.8538416 22.1844752,11.8538416 L22.1844752,11.8538416 Z" id="Shape"></path>
                <path d="M12.5260396,9.58982178 L20.916099,9.58982178 L20.9167525,9.58938614 C20.9167525,9.58938614 20.9174059,9.58982178 20.9187129,9.58982178 C21.2493663,9.58982178 21.5166337,9.32124752 21.5166337,8.9910297 L21.5166337,8.9910297 C21.2201782,4.1610495 17.3551485,0.297326733 12.5260396,0 L12.5238614,0.00174257426 C12.1949505,0.00304950495 11.9276832,0.270316832 11.9276832,0.60009901 L11.9276832,8.99081188 C11.9276832,9.32124752 12.1951683,9.58982178 12.5260396,9.58982178 L12.5260396,9.58982178 Z" id="Shape"></path>
                <path d="M15.9674257,17.7082376 L15.9652475,17.7073663 C15.9643762,17.7058416 15.9637228,17.7045347 15.9630693,17.7038812 L9.77693069,11.5175248 L9.77693069,11.5153465 C9.67237624,11.4079604 9.60877228,11.261802 9.60877228,11.0999604 L9.6070297,11.0999604 L9.6070297,2.35637624 L9.6070297,2.35572277 C9.60594059,2.02637624 9.33954455,1.76041584 9.0099802,1.7599802 L9.00932673,1.75867327 C3.982,2.06732673 0,6.24275248 0,11.3478416 C0,16.6533267 4.30132673,20.9550891 9.60681188,20.9550891 C12.0270297,20.9550891 14.2370495,20.0607129 15.9264752,18.5847525 L15.9264752,18.5821386 C16.0567327,18.4725743 16.1392871,18.3105149 16.1392871,18.1279802 C16.1392871,17.9648317 16.0739406,17.8167129 15.9674257,17.7084554 L15.9674257,17.7082376 L15.9674257,17.7082376 Z" id="Shape"></path>
            </g>
        </g>
    </g>
</svg>